<svg width="21" height="25" viewBox="0 0 21 25" fill="none" xmlns="http://www.w3.org/2000/svg">
<path d="M17.2458 13.3309C17.2696 11.4818 18.2627 9.73217 19.838 8.76366C18.8442 7.34431 17.1796 6.4444 15.4477 6.39021C13.6006 6.19632 11.8098 7.49552 10.8685 7.49552C9.90905 7.49552 8.4598 6.40946 6.89919 6.44157C4.86502 6.50729 2.96865 7.66381 1.97898 9.44222C-0.148418 13.1255 1.43843 18.5386 3.4763 21.5159C4.49589 22.9738 5.6875 24.6023 7.2467 24.5445C8.77246 24.4813 9.34231 23.5716 11.184 23.5716C13.0087 23.5716 13.5433 24.5445 15.1341 24.5078C16.7714 24.4813 17.8029 23.0435 18.7867 21.5718C19.5193 20.533 20.083 19.3849 20.457 18.17C18.5329 17.3562 17.248 15.42 17.2458 13.3309Z" fill="white"/>
<path d="M14.241 4.43221C15.1336 3.36058 15.5734 1.98318 15.4669 0.592529C14.1031 0.735772 12.8433 1.38759 11.9386 2.4181C11.0539 3.42496 10.5935 4.77813 10.6805 6.11563C12.0448 6.12968 13.386 5.49553 14.241 4.43221Z" fill="white"/>
</svg>
