<svg width="20" height="20" viewBox="0 0 20 20" fill="none" xmlns="http://www.w3.org/2000/svg">
<path fill-rule="evenodd" clip-rule="evenodd" d="M9.9974 16.667C13.6793 16.667 16.6641 13.6822 16.6641 10.0003C16.6641 6.31843 13.6793 3.33366 9.9974 3.33366C6.3155 3.33366 3.33073 6.31843 3.33073 10.0003C3.33073 13.6822 6.3155 16.667 9.9974 16.667ZM9.9974 18.3337C14.5997 18.3337 18.3307 14.6027 18.3307 10.0003C18.3307 5.39795 14.5997 1.66699 9.9974 1.66699C5.39502 1.66699 1.66406 5.39795 1.66406 10.0003C1.66406 14.6027 5.39502 18.3337 9.9974 18.3337Z" fill="#777E91"/>
<path d="M9.9974 8.33301C9.9974 7.87277 10.3705 7.49967 10.8307 7.49967H11.6641C12.1243 7.49967 12.4974 7.12658 12.4974 6.66634C12.4974 6.20611 12.1243 5.83301 11.6641 5.83301H10.8307C9.44998 5.83301 8.33073 6.9523 8.33073 8.33301V9.99967H7.4974C7.03716 9.99967 6.66406 10.3728 6.66406 10.833C6.66406 11.2933 7.03715 11.6663 7.4974 11.6663H8.33073V16.6663C8.33073 17.1266 8.70381 17.4997 9.16406 17.4997C9.62431 17.4997 9.9974 17.1266 9.9974 16.6663V11.6663H11.6641C12.1243 11.6663 12.4974 11.2933 12.4974 10.833C12.4974 10.3728 12.1243 9.99967 11.6641 9.99967H9.9974V8.33301Z" fill="#777E91"/>
</svg>
