<svg width="27" height="30" viewBox="0 0 27 30" fill="none" xmlns="http://www.w3.org/2000/svg">
<g filter="url(#filter0_ii_2992_48342)">
<path d="M1.48 1.29173C1.1599 1.63053 0.970703 2.15633 0.970703 2.83723V27.1648C0.970703 27.8468 1.1599 28.3715 1.48 28.7103L1.5614 28.7895L15.1893 15.1616V15.001V14.8404L1.5614 1.21143L1.48 1.29173Z" fill="url(#paint0_linear_2992_48342)"/>
<path d="M19.7314 19.7057L15.1895 15.1616V15.001V14.8404L19.7325 10.2974L19.8348 10.3557L25.2171 13.4137C26.7538 14.2871 26.7538 15.716 25.2171 16.5905L19.8348 19.6485L19.7314 19.7057Z" fill="url(#paint1_linear_2992_48342)"/>
<g filter="url(#filter1_i_2992_48342)">
<path d="M19.8351 19.6474L15.1887 15.001L1.48047 28.7103C1.98647 29.2471 2.82357 29.3131 3.76627 28.7785L19.8351 19.6474Z" fill="url(#paint2_linear_2992_48342)"/>
</g>
<path d="M19.8351 10.3547L3.76627 1.22466C2.82357 0.688963 1.98647 0.756063 1.48047 1.29286L15.1898 15.0022L19.8351 10.3547Z" fill="url(#paint3_linear_2992_48342)"/>
</g>
<defs>
<filter id="filter0_ii_2992_48342" x="0.970703" y="0.85498" width="25.3984" height="28.2927" filterUnits="userSpaceOnUse" color-interpolation-filters="sRGB">
<feFlood flood-opacity="0" result="BackgroundImageFix"/>
<feBlend mode="normal" in="SourceGraphic" in2="BackgroundImageFix" result="shape"/>
<feColorMatrix in="SourceAlpha" type="matrix" values="0 0 0 0 0 0 0 0 0 0 0 0 0 0 0 0 0 0 127 0" result="hardAlpha"/>
<feOffset dy="-0.15"/>
<feComposite in2="hardAlpha" operator="arithmetic" k2="-1" k3="1"/>
<feColorMatrix type="matrix" values="0 0 0 0 0 0 0 0 0 0 0 0 0 0 0 0 0 0 0.12 0"/>
<feBlend mode="normal" in2="shape" result="effect1_innerShadow_2992_48342"/>
<feColorMatrix in="SourceAlpha" type="matrix" values="0 0 0 0 0 0 0 0 0 0 0 0 0 0 0 0 0 0 127 0" result="hardAlpha"/>
<feOffset dy="0.15"/>
<feComposite in2="hardAlpha" operator="arithmetic" k2="-1" k3="1"/>
<feColorMatrix type="matrix" values="0 0 0 0 1 0 0 0 0 1 0 0 0 0 1 0 0 0 0.25 0"/>
<feBlend mode="normal" in2="effect1_innerShadow_2992_48342" result="effect2_innerShadow_2992_48342"/>
</filter>
<filter id="filter1_i_2992_48342" x="1.48047" y="15.001" width="18.3545" height="14.1467" filterUnits="userSpaceOnUse" color-interpolation-filters="sRGB">
<feFlood flood-opacity="0" result="BackgroundImageFix"/>
<feBlend mode="normal" in="SourceGraphic" in2="BackgroundImageFix" result="shape"/>
<feColorMatrix in="SourceAlpha" type="matrix" values="0 0 0 0 0 0 0 0 0 0 0 0 0 0 0 0 0 0 127 0" result="hardAlpha"/>
<feOffset dy="-0.15"/>
<feComposite in2="hardAlpha" operator="arithmetic" k2="-1" k3="1"/>
<feColorMatrix type="matrix" values="0 0 0 0 0 0 0 0 0 0 0 0 0 0 0 0 0 0 0.08 0"/>
<feBlend mode="normal" in2="shape" result="effect1_innerShadow_2992_48342"/>
</filter>
<linearGradient id="paint0_linear_2992_48342" x1="13.9813" y1="2.57983" x2="-4.47891" y2="21.04" gradientUnits="userSpaceOnUse">
<stop stop-color="#00A0FF"/>
<stop offset="0.0066" stop-color="#00A1FF"/>
<stop offset="0.2601" stop-color="#00BEFF"/>
<stop offset="0.5122" stop-color="#00D2FF"/>
<stop offset="0.7604" stop-color="#00DFFF"/>
<stop offset="1" stop-color="#00E3FF"/>
</linearGradient>
<linearGradient id="paint1_linear_2992_48342" x1="27.2174" y1="15.001" x2="0.601914" y2="15.001" gradientUnits="userSpaceOnUse">
<stop stop-color="#FFE000"/>
<stop offset="0.4087" stop-color="#FFBD00"/>
<stop offset="0.7754" stop-color="#FFA500"/>
<stop offset="1" stop-color="#FF9C00"/>
</linearGradient>
<linearGradient id="paint2_linear_2992_48342" x1="17.3118" y1="17.5243" x2="-7.72256" y2="42.5586" gradientUnits="userSpaceOnUse">
<stop stop-color="#FF3A44"/>
<stop offset="1" stop-color="#C31162"/>
</linearGradient>
<linearGradient id="paint3_linear_2992_48342" x1="-1.97199" y1="-6.80556" x2="9.20654" y2="4.37298" gradientUnits="userSpaceOnUse">
<stop stop-color="#32A071"/>
<stop offset="0.0685" stop-color="#2DA771"/>
<stop offset="0.4762" stop-color="#15CF74"/>
<stop offset="0.8009" stop-color="#06E775"/>
<stop offset="1" stop-color="#00F076"/>
</linearGradient>
</defs>
</svg>
