<svg width="20" height="20" viewBox="0 0 20 20" fill="none" xmlns="http://www.w3.org/2000/svg">
<path fill-rule="evenodd" clip-rule="evenodd" d="M13.3307 3.33366H6.66406C4.82311 3.33366 3.33073 4.82604 3.33073 6.66699V13.3337C3.33073 15.1746 4.82311 16.667 6.66406 16.667H13.3307C15.1716 16.667 16.6641 15.1746 16.6641 13.3337V6.66699C16.6641 4.82604 15.1716 3.33366 13.3307 3.33366ZM6.66406 1.66699C3.90264 1.66699 1.66406 3.90557 1.66406 6.66699V13.3337C1.66406 16.0951 3.90264 18.3337 6.66406 18.3337H13.3307C16.0921 18.3337 18.3307 16.0951 18.3307 13.3337V6.66699C18.3307 3.90557 16.0921 1.66699 13.3307 1.66699H6.66406Z" fill="#777E91"/>
<path d="M14.1654 6.66667C14.6256 6.66667 14.9987 6.29357 14.9987 5.83333C14.9987 5.3731 14.6256 5 14.1654 5C13.7051 5 13.332 5.3731 13.332 5.83333C13.332 6.29357 13.7051 6.66667 14.1654 6.66667Z" fill="#777E91"/>
<path fill-rule="evenodd" clip-rule="evenodd" d="M14.1693 9.99967C14.1693 12.3008 12.3038 14.1663 10.0026 14.1663C7.70142 14.1663 5.83594 12.3008 5.83594 9.99967C5.83594 7.69849 7.70142 5.83301 10.0026 5.83301C12.3038 5.83301 14.1693 7.69849 14.1693 9.99967ZM12.5026 9.99967C12.5026 11.3804 11.3834 12.4997 10.0026 12.4997C8.62185 12.4997 7.5026 11.3804 7.5026 9.99967C7.5026 8.61892 8.62185 7.49967 10.0026 7.49967C11.3834 7.49967 12.5026 8.61892 12.5026 9.99967Z" fill="#777E91"/>
</svg>
