<svg width="514" height="363" viewBox="0 0 514 363" fill="none" xmlns="http://www.w3.org/2000/svg">
<g opacity="0.8">
<g opacity="0.7">
<g opacity="0.7">
<path opacity="0.7" d="M352.673 725.664C345.823 723.159 339.56 719.679 334.093 715.709C175.468 595.708 122.303 593.413 75.4582 591.402C50.5256 590.404 26.8424 589.296 -9.99795 571.12C-31.0444 560.794 -49.1471 548.613 -66.7969 536.812C-98.4412 515.66 -128.31 495.612 -169.789 489.686C-174.548 489.013 -179.55 488.445 -184.552 487.877C-203.727 485.532 -223.56 483.329 -241.061 474.203C-267.258 460.634 -281.447 437.527 -295.319 415.148C-302.379 403.508 -309.892 391.487 -318.856 381.106C-343.901 351.899 -366.12 352.173 -391.777 352.498C-404.344 352.764 -417.433 352.823 -431.994 349.485L-431.582 348.441C-417.195 351.711 -404.279 351.582 -391.538 351.386C-366.472 351.029 -343.003 350.644 -317.4 380.474C-308.436 390.855 -300.992 403.05 -293.864 414.516C-280.165 436.826 -266.082 459.691 -240.232 473.122C-223.01 481.937 -203.245 484.314 -184.245 486.59C-179.417 487.089 -174.415 487.657 -169.482 488.399C-127.587 494.288 -97.5435 514.405 -65.9679 535.731C-48.492 547.463 -30.3893 559.644 -9.34285 569.971C27.3236 588.078 50.659 589.049 75.5229 590.221C122.541 592.3 175.88 594.664 335.027 714.871C340.32 718.772 346.583 722.253 353.085 724.62L352.673 725.664Z" fill="#FF7A04"/>
</g>
<g opacity="0.7">
<path opacity="0.7" d="M357.623 713.135C346.677 710.823 335.824 705.73 327.43 698.994C320.673 693.71 314.927 689.428 309.461 685.458C280.942 664.535 256.095 650.092 234.171 637.407C205.531 620.862 181.419 608.118 160.482 599.041C124.345 583.155 101.629 580.618 79.4334 578.287C75.6123 577.784 71.7224 577.454 67.9012 576.95C45.9124 574.097 25.3793 570.612 -2.83629 556.045C-5.65459 554.53 -8.47293 553.014 -11.5702 551.187C-26.7778 542.362 -40.1132 532.869 -52.927 523.582C-68.8745 512.052 -84.0214 501.038 -102.007 492.122C-119.645 483.344 -137.06 478.073 -155.228 475.724C-160.404 475.087 -165.579 474.451 -170.65 474.057C-188.781 472.124 -207.503 470.16 -224.199 462.558C-250.182 450.482 -264.953 429.358 -279.408 408.962C-286.601 398.677 -293.899 388.149 -302.686 378.844C-327.686 352.068 -348.765 350.983 -373.039 349.842C-386.686 349.279 -400.854 348.51 -417.194 343.06C-419.176 342.479 -421.262 341.654 -423.522 340.761C-425.087 340.143 -426.409 339.42 -427.906 338.627L-427.493 337.583C-425.997 338.376 -424.501 339.168 -423.11 339.717C-421.023 340.542 -418.937 341.366 -416.956 341.948C-400.964 347.26 -386.795 348.029 -373.322 348.524C-349.813 349.563 -327.553 350.713 -301.994 378.111C-293.277 387.59 -285.736 398.013 -278.716 408.229C-264.435 428.556 -249.77 449.438 -224.134 461.376C-207.855 469.015 -189.133 470.979 -171.176 472.843C-166.174 473.411 -160.755 473.942 -155.58 474.579C-137.238 476.997 -119.649 482.336 -101.837 491.184C-83.6776 500.168 -68.7046 511.113 -52.5833 522.712C-39.7695 531.999 -26.5029 541.666 -11.4004 550.248C-8.47694 552.006 -5.65861 553.522 -2.59769 554.933C25.444 569.431 45.8032 572.847 67.6182 575.631C71.4394 576.135 75.3293 576.465 79.1504 576.969C101.346 579.3 124.41 581.974 160.547 597.86C181.589 607.179 205.769 619.749 234.409 636.294C256.333 648.979 281.354 663.491 309.873 684.414C315.166 688.315 320.912 692.597 327.842 697.95C336.131 704.444 346.915 709.71 357.756 711.78L357.275 712.998L357.623 713.135Z" fill="#FF7A04"/>
</g>
<g opacity="0.7">
<path opacity="0.7" d="M363.397 698.518C348.436 699.246 332.262 691.851 320.698 682.454C314.01 676.995 308.612 672.851 303.424 669.192C280.582 652.725 260.785 642.289 241.51 632.058C237.543 629.888 233.334 627.822 229.367 625.652C198.366 608.978 176.135 597.58 157.733 588.701C124.374 572.907 103.283 568.799 82.9922 565.209C79.2397 564.531 75.4873 563.853 71.8037 563.002C70.1014 562.731 68.4677 562.287 66.5915 561.948C49.0789 558.45 29.1685 554.406 3.90878 541.007C1.26435 539.56 -1.55398 538.044 -4.47744 536.286C-18.2253 527.837 -29.6845 518.683 -40.8647 509.84C-56.0156 497.819 -70.4346 486.49 -89.4633 477.162C-106.474 468.832 -123.437 463.941 -141.257 461.729C-146.607 461.024 -152.268 460.598 -157.686 460.067C-174.774 458.547 -192.278 457.063 -208.032 450.638C-233.801 440.055 -248.665 421.71 -264.471 402.189C-271.518 393.571 -278.776 384.467 -287.037 376.375C-311.924 351.858 -331.689 349.481 -354.58 346.875C-367.467 345.405 -380.527 343.866 -395.792 338.238C-397.704 337.483 -399.617 336.727 -401.703 335.903C-408.868 332.67 -415.589 327.802 -421.132 321.991L-420.72 320.947C-415.245 326.932 -408.525 331.8 -401.117 334.928C-399.03 335.752 -397.187 336.681 -395.205 337.263C-380.115 342.822 -367.054 344.361 -354.167 345.831C-332.041 348.336 -311.095 350.777 -285.755 375.675C-277.389 384.009 -270.063 392.939 -263.015 401.557C-247.314 420.836 -232.625 439.112 -207.203 449.557C-191.797 455.845 -174.361 457.503 -157.273 459.023C-151.855 459.554 -146.194 459.98 -140.844 460.685C-122.956 462.723 -105.888 467.857 -88.5292 476.324C-69.4317 485.478 -55.0815 496.981 -39.7567 509.071C-28.5765 517.913 -17.0486 526.893 -3.4746 535.274C-0.551141 537.032 2.02454 538.653 4.73775 539.926C29.6498 553.188 49.5602 557.232 66.8989 560.662C68.6012 560.932 70.4086 561.445 72.111 561.715C75.8634 562.393 79.7897 563.139 83.2995 563.922C103.695 567.755 124.855 571.689 158.388 587.552C177.032 596.326 199.021 607.829 230.022 624.502C233.989 626.673 238.025 628.67 241.991 630.84C261.267 641.07 281.064 651.507 304.079 668.043C309.267 671.702 314.596 676.02 321.284 681.478C332.675 690.806 348.917 698.028 363.705 697.231L363.223 698.45L363.397 698.518Z" fill="#FF7A04"/>
</g>
<g opacity="0.7">
<path opacity="0.7" d="M371.166 678.855C370.127 679.45 369.087 680.046 367.943 680.398C349.294 687.917 327.762 677.801 313.792 665.845C307.278 660.455 302.228 656.448 297.214 652.858C276.705 638.117 258.687 629.792 241.191 621.673C235.591 619.058 230.165 616.512 224.807 613.792C200.247 601.675 180.207 591.344 162.533 582.148L155.331 578.499C124.577 562.727 105.39 557.36 86.725 552.199C83.1101 551.174 79.4952 550.148 75.8803 549.122C72.2653 548.096 68.4766 547.002 64.4452 546.013C49.1525 541.983 31.6359 537.477 11.0707 525.932C8.42623 524.485 5.85052 522.864 3.10093 521.174C-9.36108 513.032 -19.3606 504.254 -29.081 495.787C-43.2615 483.345 -56.7787 471.768 -76.3978 462.408C-92.7821 454.527 -109.223 449.842 -126.764 447.942C-132.53 447.273 -138.608 446.884 -144.269 446.458C-160.14 445.418 -176.532 444.172 -191.344 438.925C-217.246 429.697 -232.971 413.024 -249.707 395.348C-256.367 388.291 -263.305 380.923 -271.04 374.045C-295.815 351.785 -315.203 347.947 -335.773 344.045C-347.726 341.737 -360.026 339.292 -374.389 333.417C-376.127 332.73 -377.971 331.8 -380.058 330.976C-394.319 324.336 -406.591 311.642 -411.888 298.083L-411.269 296.517C-406.457 310.287 -393.975 323.466 -379.714 330.106C-377.696 331.104 -375.784 331.86 -374.045 332.547C-359.856 338.353 -347.556 340.799 -335.777 343.038C-315.034 347.008 -295.471 350.915 -270.349 373.312C-262.614 380.19 -255.675 387.558 -249.016 394.615C-232.385 412.048 -216.834 428.653 -191.105 437.812C-176.641 442.922 -160.249 444.168 -144.552 445.139C-138.717 445.634 -132.813 445.954 -126.873 446.691C-109.332 448.592 -92.7174 453.345 -76.1592 461.295C-56.1924 470.793 -42.7438 482.543 -28.3896 495.054C-18.6691 503.521 -8.66961 512.3 3.61853 520.373C6.29937 522.237 8.94383 523.684 11.4144 525.062C31.8058 536.538 49.1485 540.975 64.4411 545.005C68.4725 545.994 72.2613 547.089 75.8762 548.115C79.4911 549.14 83.1061 550.166 86.721 551.192C105.386 556.353 124.746 561.789 155.675 577.629L162.877 581.278C180.551 590.474 200.59 600.805 225.151 612.922C230.508 615.642 235.935 618.188 241.604 620.629C259.1 628.748 277.292 637.142 297.974 651.951C302.988 655.541 308.038 659.548 314.484 665.112C328.175 676.757 349.185 686.667 367.175 679.29C368.804 678.727 370.329 677.921 371.679 677.046L370.992 678.786L371.166 678.855Z" fill="#FF7A04"/>
</g>
<g opacity="0.7">
<path opacity="0.7" d="M383.953 646.489C383.087 647.153 382.222 647.817 381.356 648.481C379.072 650.194 376.997 652.392 374.887 654.173C370.321 658.606 365.513 663.144 358.579 665.433C336.63 672.655 315.248 656.563 307.06 649.305C300.962 643.878 296.086 639.94 291.177 636.593C272.201 623.061 255.336 616.398 238.992 609.941C232.732 607.468 226.473 604.995 220.177 602.106C196.143 591.202 174.017 580.047 152.756 568.228C124.257 552.342 106.454 545.509 89.3456 538.952C86.2159 537.715 83.0862 536.479 79.7827 535.174C74.9143 533.25 69.3868 531.469 63.6166 529.793C50.1638 525.685 34.9723 520.891 18.1635 511.031C15.6929 509.653 13.2911 508.101 10.6102 506.237C-0.671078 498.159 -9.38471 489.687 -17.8193 481.527C-30.9241 468.906 -43.1232 457.046 -63.4378 447.411C-79.1953 439.979 -95.1835 435.674 -112.203 433.98C-118.385 433.348 -124.879 432.995 -131.199 432.711C-145.785 431.978 -160.96 431.213 -174.655 427.211C-201.282 419.307 -218.39 404.099 -236.335 387.957C-242.259 382.599 -248.356 377.173 -255.044 371.714C-279.705 351.712 -297.78 346.583 -316.966 341.216C-327.985 338.07 -339.351 334.786 -352.812 328.664C-354.656 327.734 -356.5 326.805 -358.238 326.118C-372.468 318.887 -384.913 306.124 -390.453 292.67C-393.748 284.73 -393.703 278.511 -393.727 272.467C-393.642 267.672 -393.695 263.226 -395.312 258.161C-395.417 257.918 -395.522 257.676 -395.627 257.433L-394.94 255.693C-394.624 256.421 -394.309 257.149 -394.062 258.051C-392.514 263.29 -392.461 267.736 -392.373 272.599C-392.349 278.644 -392.324 284.689 -389.134 292.386C-383.805 305.355 -371.36 318.118 -357.478 325.211C-355.982 326.003 -353.964 327.001 -352.226 327.688C-338.939 333.742 -327.572 337.026 -316.554 340.172C-297.193 345.607 -278.945 350.805 -254.179 371.05C-247.491 376.509 -241.393 381.935 -235.47 387.293C-217.456 403.261 -200.522 418.4 -174.243 426.167C-160.721 430.101 -145.789 430.971 -131.203 431.704C-124.883 431.988 -118.389 432.34 -112.207 432.972C-94.9449 434.561 -78.8516 439.109 -62.8515 446.436C-42.2943 455.965 -29.99 468.068 -16.8852 480.689C-8.45061 488.849 0.263018 497.321 11.3705 505.33C13.8774 507.125 16.2793 508.678 18.7498 510.056C35.3848 519.847 50.4712 524.399 63.8552 528.68C69.7305 530.599 75.1529 532.138 80.1952 534.13C83.3248 535.366 86.6284 536.671 89.758 537.908C106.866 544.465 124.67 551.298 153.342 567.252C174.603 579.071 196.729 590.227 220.764 601.13C227.059 604.02 233.145 606.424 239.578 608.965C256.096 615.491 273.135 622.223 292.043 635.929C296.883 639.45 301.759 643.388 307.857 648.815C315.871 656.004 336.8 671.716 358.089 664.636C364.782 662.452 369.278 658.194 373.912 653.587C375.918 651.563 378.097 649.607 380.451 647.721C381.87 646.672 383.289 645.623 384.64 644.749L383.953 646.489Z" fill="#FF7A04"/>
</g>
<g opacity="0.7">
<path opacity="0.7" d="M391.515 627.347C384.475 629.394 378.098 632.306 372.558 636.153C370.342 637.692 368.3 639.299 366.084 640.837C360.892 644.821 356.185 648.595 349.214 650.468C333.78 654.429 317.404 648.562 300.223 632.521C294.647 627.301 289.771 623.362 285.036 620.084C265.085 605.966 248.086 600.658 230.044 594.938C225.212 593.432 220.206 591.857 215.269 590.107C188.95 580.916 168.522 569.024 149.833 557.818C121.468 540.577 105.221 532.348 87.9997 523.533L83.3375 521.087C77.6322 518.23 70.9563 515.794 63.69 513.325C51.9032 509.071 38.4828 504.373 24.7349 495.924C22.3331 494.372 20.1051 492.888 17.5982 491.093C7.25496 483.184 -0.277965 474.777 -7.60063 466.854C-19.2134 454.019 -30.3368 441.98 -51.0679 432.381C-66.1987 425.398 -81.734 421.473 -98.4743 420.09C-105.316 419.6 -112.469 419.39 -119.206 419.142C-132.505 418.716 -146.221 418.327 -158.558 415.465C-186.915 408.889 -205.058 395.284 -226.161 379.503C-230.479 376.188 -234.972 372.804 -239.706 369.525C-263.49 351.881 -280.251 345.461 -297.985 338.454C-308.244 334.401 -318.745 330.454 -331.409 323.841C-333.079 322.98 -334.923 322.051 -336.35 321.085C-349.746 313.781 -361.982 301.503 -368.35 289.13C-371.989 282.06 -372.915 276.262 -373.736 270.708C-374.378 266.229 -375.021 261.751 -377.192 257.071C-378.874 253.187 -381.11 249.689 -384.042 245.915C-385.542 244.116 -387.216 242.247 -388.959 240.553L-388.546 239.509C-386.456 241.341 -384.608 243.278 -383.003 245.32C-380.071 249.093 -377.73 252.835 -376.048 256.718C-373.946 261.572 -373.303 266.051 -372.486 270.598C-371.665 276.153 -370.671 281.776 -367.206 288.778C-360.943 300.908 -348.986 312.874 -335.764 320.109C-334.268 320.901 -332.493 322.005 -330.754 322.692C-318.195 329.062 -307.589 333.252 -297.504 337.236C-279.769 344.242 -262.835 350.731 -238.461 368.408C-233.795 371.86 -229.303 375.244 -224.915 378.386C-203.986 394.098 -185.843 407.703 -157.834 414.141C-145.497 417.003 -132.545 417.292 -118.656 417.75C-111.919 417.997 -104.766 418.208 -97.7505 418.767C-81.0102 420.15 -65.301 424.143 -49.8225 431.264C-28.6749 440.826 -17.6202 453.039 -5.83355 465.943C1.48909 473.865 8.84814 482.204 19.1914 490.113C21.5244 491.839 23.8575 493.566 26.1542 494.875C39.9021 503.324 53.1487 507.954 64.7617 512.139C72.0279 514.608 78.8776 517.113 84.583 519.97L89.2451 522.415C106.466 531.231 122.539 539.391 151.078 556.701C169.699 568.081 190.021 579.73 216.341 588.921C221.278 590.671 226.284 592.246 231.116 593.752C249.158 599.472 266.331 604.848 286.386 619.209C291.121 622.488 295.929 626.6 301.679 631.889C318.475 647.376 334.435 653.279 349.279 649.286C356.008 647.519 360.714 643.745 365.907 639.761C367.949 638.154 370.059 636.373 372.449 634.903C378.405 631.02 385.267 627.897 392.793 625.639L392.036 627.553L391.515 627.347Z" fill="#FF7A04"/>
</g>
<g opacity="0.7">
<path opacity="0.7" d="M396.877 613.775C384.73 615.011 373.529 618.431 363.76 623.826C361.682 625.016 359.534 626.381 357.456 627.572C352.054 631.07 346.789 634.221 339.781 635.677C320.214 639.413 304.716 627.255 293.422 616.155C288.194 611.072 283.666 607.271 278.931 603.992C262.114 592.118 246.752 588.262 232.087 584.681C225.136 582.941 218.011 581.132 210.64 578.421C186.023 569.501 165.255 559.486 147.258 547.547C132.742 537.99 122.123 530.778 112.654 524.22C103.637 518.043 95.873 512.763 87.4141 507.208C81.5308 503.274 73.9856 500.495 65.4659 497.129C55.0337 493.007 43.3843 488.405 31.828 481.023C29.6 479.54 27.4408 477.882 25.1078 476.156C15.7714 468.242 9.17658 460.004 3.03465 452.146C-7.15473 439.269 -16.7861 427.015 -38.1763 417.559C-52.6804 411.024 -67.6941 407.305 -83.9815 406.303C-91.6562 405.886 -99.4684 405.817 -107.038 405.643C-119.294 405.629 -130.891 405.473 -142.043 403.683C-174.387 398.549 -195.62 385.132 -222.282 368.161L-223.884 367.126C-246.754 352.257 -261.852 344.683 -277.682 336.417C-287.528 331.32 -297.548 326.155 -310.075 319.194C-311.397 318.47 -312.824 317.504 -314.147 316.781L-314.773 316.332C-327.616 308.643 -339.431 297.337 -346.385 285.939C-350.125 279.633 -351.848 274.326 -353.639 269.193C-355.115 264.787 -356.485 260.625 -359.073 255.981C-361.066 252.377 -363.545 248.984 -366.683 245.733C-371.773 240.302 -378.425 235.26 -385.214 230.566L-384.801 229.522C-377.907 234.459 -371.013 239.395 -365.817 245.069C-362.748 248.494 -360.27 251.887 -358.102 255.56C-355.341 260.272 -353.97 264.435 -352.563 269.014C-350.946 274.079 -349.224 279.386 -345.415 285.518C-338.565 296.673 -326.924 307.911 -314.256 315.531L-313.629 315.979C-312.133 316.772 -310.88 317.669 -309.557 318.393C-297.273 325.458 -287.08 330.693 -277.339 335.547C-261.266 343.707 -246.236 351.455 -222.95 366.288L-221.348 367.323C-194.86 384.225 -173.801 397.574 -141.631 402.639C-130.652 404.361 -119.055 404.516 -106.799 404.53C-99.161 404.53 -91.3488 404.599 -83.7429 405.19C-67.2816 406.261 -52.0941 410.049 -37.4161 416.652C-15.7469 426.42 -6.11553 438.674 4.24775 451.62C10.3897 459.478 16.8793 467.473 26.2157 475.386C28.3062 477.218 30.5341 478.702 32.7621 480.185C44.1445 487.499 55.7939 492.101 66.0523 496.154C74.3981 499.451 82.2224 502.542 88.3482 506.37C96.9811 511.993 104.745 517.273 113.588 523.382C123.126 529.766 133.676 537.152 148.192 546.709C166.015 558.579 186.783 568.594 211.226 577.446C218.423 580.088 225.548 581.897 232.499 583.637C247.339 587.287 262.631 591.317 279.865 603.154C284.426 606.364 289.128 610.234 294.462 615.56C305.65 626.417 320.801 638.438 339.535 634.775C346.3 633.424 351.391 630.205 356.724 626.88C358.803 625.69 360.776 624.256 363.097 622.96C373.109 617.461 384.726 614.003 397.29 612.73L396.877 613.775Z" fill="#FF7A04"/>
</g>
<g opacity="0.7">
<path opacity="0.7" d="M401.139 602.985C385.373 602.188 369.345 605.11 355.204 611.393C353.194 612.409 351.253 613.252 349.244 614.268C343.283 617.144 337.808 619.809 330.591 620.78C311.505 623.298 298.404 611.685 286.759 599.44C281.773 594.252 277.592 590.588 272.963 587.552C256.878 576.37 243.154 573.965 228.318 571.323C221.161 570.105 213.83 568.818 206.147 566.386C181.639 558.716 161.673 549.218 144.993 536.996C127.792 524.568 117.061 515.098 106.435 505.871C101.522 501.516 96.7143 497.403 91.5589 493.154C85.4977 488.144 77.0468 484.604 68.143 480.684C58.9965 476.87 48.5279 472.332 38.8842 465.705C36.8301 464.29 34.6709 462.633 32.5804 460.801C24.0083 452.989 18.5942 444.814 13.2165 437.057C4.45045 424.139 -3.58375 411.912 -25.3217 402.318C-39.3729 396.164 -53.7598 392.894 -69.6995 392.029C-78.381 391.616 -87.095 391.795 -95.635 392.042C-106.189 392.298 -115.909 392.482 -125.46 391.726C-157.934 388.955 -181.027 379.229 -207.993 364.552C-234.437 350.081 -249.127 340.455 -265.976 329.172C-273.008 324.584 -280.319 319.684 -289.02 314.234C-289.995 313.648 -290.969 313.062 -291.875 312.302L-293.302 311.336C-305.417 303.331 -316.916 292.753 -324.631 282.262C-328.541 276.895 -331.06 272.077 -333.474 267.502C-335.783 263.17 -337.812 259.15 -341.059 254.648C-343.538 251.255 -346.154 248.21 -349.255 245.375C-355.494 239.289 -363.674 234.046 -371.438 228.766C-374.919 226.385 -378.469 224.178 -381.708 221.691L-381.296 220.647C-377.988 222.959 -374.333 225.409 -370.677 227.859C-362.671 233.034 -354.56 238.451 -348.147 244.606C-345.115 247.615 -342.325 250.728 -339.846 254.122C-336.425 258.692 -334.396 262.713 -332.156 267.219C-329.916 271.725 -327.328 276.368 -323.418 281.735C-315.808 291.983 -304.482 302.493 -292.542 310.429L-291.115 311.395C-290.14 311.981 -289.235 312.741 -288.26 313.328C-279.558 318.777 -272.248 323.677 -265.216 328.265C-248.298 339.375 -233.677 349.175 -207.233 363.645C-180.614 378.185 -157.522 387.911 -125.222 390.613C-115.671 391.369 -105.95 391.186 -95.3963 390.929C-86.8563 390.682 -77.9686 390.572 -69.287 390.984C-53.1047 391.745 -38.5439 395.083 -24.3188 401.306C-2.23316 411.038 5.97488 423.333 14.8461 436.494C20.0499 444.183 25.2901 452.288 33.8622 460.1C35.7788 461.863 37.9381 463.521 39.9921 464.936C49.462 471.494 59.7567 475.963 68.9032 479.778C78.0496 483.592 86.4318 487.306 92.6669 492.385C97.8223 496.634 102.63 500.746 107.543 505.101C117.995 514.26 128.726 523.73 145.927 536.158C162.502 548.138 182.468 557.635 206.802 565.237C214.311 567.6 221.642 568.887 228.799 570.105C243.045 572.715 257.775 575.115 273.965 586.54C278.526 589.75 282.881 593.483 287.867 598.671C299.302 610.431 312.055 621.906 330.481 619.53C337.457 618.664 342.932 615.999 348.718 613.055C350.728 612.038 352.669 611.196 354.678 610.179C369.062 603.791 385.681 600.902 401.794 601.836L401.313 603.054L401.139 602.985Z" fill="#FF7A04"/>
</g>
<g opacity="0.7">
<path opacity="0.7" d="M404.371 594.807C402.737 594.363 401.209 594.161 399.506 593.891C382.726 591.084 364.922 592.902 346.406 599.065C344.534 599.734 342.904 600.297 341.032 600.966C334.688 603.287 328.586 605.504 321.158 605.989C301.789 607.189 290.734 594.976 279.959 583.074C275.321 578.023 271.314 574.428 267.032 571.53C251.852 561.107 238.48 559.848 224.518 558.556C217.155 557.86 209.617 557.095 201.623 554.943C177.051 548.454 158.232 539.611 142.455 527.142C126.851 514.741 117.26 503.911 108.296 493.53C104.179 488.685 100.1 484.257 95.6721 479.691C89.7808 473.743 80.9457 469.649 71.589 465.349C63.1017 461.392 54.2666 457.298 46.1878 451.29C44.1337 449.875 42.2171 448.112 40.3005 446.349C32.3875 438.395 28.0854 430.459 23.7145 422.697C16.5457 409.806 9.9348 397.538 -12.0458 388.05C-25.4702 382.344 -39.3355 379.28 -54.9962 378.726C-64.9272 378.424 -75.2019 378.992 -84.8863 379.591C-93.1473 380.15 -100.923 380.498 -108.561 380.498C-140.643 380.296 -164.759 375.195 -191.786 362.707C-216.621 351.286 -230.102 340.126 -244.246 328.101C-251.213 322.331 -258.459 316.25 -267.407 309.898C-268.034 309.449 -268.66 309.001 -269.461 308.483C-270.088 308.034 -270.888 307.517 -271.689 306.999C-283.423 298.541 -294.433 288.76 -302.629 279.487C-306.535 275.127 -309.572 271.111 -312.435 267.164C-315.75 262.837 -318.892 258.578 -322.972 254.15C-325.936 250.967 -328.863 248.201 -331.859 245.609C-338.373 240.219 -346.379 235.045 -354.001 230.424C-358.979 227.251 -363.677 224.389 -367.891 221.316C-371.651 218.623 -375.133 216.242 -378.371 213.755L-377.959 212.711C-374.478 215.093 -370.891 217.717 -367.131 220.409C-362.917 223.482 -358.219 226.344 -353.241 229.517C-345.514 234.381 -337.439 239.381 -330.994 244.945C-327.824 247.606 -324.896 250.372 -321.933 253.554C-317.679 258.051 -314.537 262.31 -311.222 266.637C-308.29 270.411 -305.427 274.358 -301.59 278.892C-293.394 288.165 -282.558 297.877 -270.929 306.093C-270.128 306.61 -269.501 307.059 -268.701 307.576C-268.074 308.025 -267.273 308.543 -266.647 308.991C-257.698 315.343 -250.452 321.424 -243.554 327.368C-229.342 339.22 -216.034 350.311 -191.373 361.663C-164.694 374.013 -140.752 379.046 -108.671 379.248C-101.032 379.248 -93.4304 378.831 -85.1693 378.273C-75.3111 377.741 -65.2102 377.105 -55.1054 377.476C-39.4446 378.03 -25.1629 381.057 -11.5645 386.832C10.9376 396.526 17.7224 408.863 24.9964 421.996C29.1933 429.689 33.4954 437.625 41.3033 445.337C43.0461 447.031 44.9627 448.794 47.0168 450.209C54.9217 456.149 63.8255 460.069 72.139 463.956C81.6695 468.325 90.6785 472.488 96.6749 478.679C101.102 483.245 105.114 487.847 109.299 492.518C118.437 502.968 127.68 513.66 143.284 526.061C158.887 538.462 177.532 547.236 201.931 553.656C209.751 555.74 217.288 556.505 224.478 557.132C238.614 558.492 252.16 559.82 267.687 570.38C272.143 573.348 276.255 577.185 280.893 582.236C291.947 594.449 302.339 605.797 320.875 604.67C328.06 604.29 333.988 602.005 340.333 599.684C342.205 599.015 343.834 598.452 345.707 597.783C364.465 591.514 382.443 589.765 399.397 592.641C401.099 592.911 402.802 593.181 404.609 593.694L404.197 594.738L404.371 594.807Z" fill="#FF7A04"/>
</g>
<g opacity="0.7">
<path opacity="0.7" d="M406.708 588.891C401.249 586.936 395.548 585.086 389.745 584C370.425 579.989 351.655 583.235 337.676 586.564C336.358 586.848 334.797 587.237 333.479 587.521C326.334 589.326 319.674 590.919 311.862 590.85C293.807 590.759 284.912 580.203 275.632 569.094C274.795 568.16 274.132 567.294 273.295 566.36C269.005 561.446 265.172 557.92 261.064 555.09C246.442 545.291 233.839 545.139 220.471 544.887C213.075 544.782 205.437 544.782 197.131 542.909C172.842 537.739 154.65 529.345 140.017 516.523C126.289 504.461 118.465 492.72 110.92 481.29C107.253 475.817 103.864 470.657 99.8857 465.464C94.4069 458.471 85.3616 453.892 75.6208 449.038C68.0716 445.251 60.1746 441.326 53.418 436.042C51.4326 434.452 49.6899 432.758 48.0159 430.89C40.9359 422.862 37.4667 414.853 34.1027 407.087C28.5311 394.223 23.3435 381.914 1.05164 372.705C-11.7461 367.448 -25.3324 364.696 -40.3664 364.59C-52.3798 364.471 -64.5267 365.708 -76.0833 366.976C-81.5664 367.626 -86.5642 368.066 -91.736 368.437C-123.078 370.941 -147.974 370.36 -175.652 360.029C-200.026 351.003 -212.055 338.203 -224.885 324.887C-231.092 318.21 -237.646 311.396 -245.693 304.797L-246.425 304.106C-247.33 303.346 -248.41 302.517 -249.49 301.688C-262.028 291.705 -271.992 283.343 -280.042 275.737C-283.248 272.66 -286.176 269.894 -288.861 267.023C-293.741 262.077 -298.343 257.443 -304.125 252.744C-307.574 249.772 -310.639 247.354 -313.773 245.111C-320.493 240.243 -328.184 235.796 -335.632 231.244C-340.504 228.314 -345.271 225.626 -349.727 222.658C-358.255 217.277 -365.566 212.378 -372.181 207.752C-373.155 207.166 -374.061 206.406 -375.035 205.82L-374.623 204.776C-373.543 205.605 -372.569 206.191 -371.489 207.02C-364.874 211.645 -357.564 216.545 -349.036 221.925C-344.511 224.719 -339.986 227.512 -335.114 230.443C-327.597 234.821 -319.906 239.267 -313.255 244.309C-309.947 246.622 -306.882 249.04 -303.433 252.012C-297.72 256.884 -293.119 261.518 -287.995 266.359C-285.242 269.056 -282.383 271.996 -279.177 275.073C-271.126 282.679 -261.163 291.041 -248.624 301.024C-247.545 301.853 -246.639 302.613 -245.559 303.442L-244.827 304.133C-236.607 310.801 -230.053 317.615 -223.846 324.292C-211.19 337.539 -199.335 350.27 -175.308 359.158C-147.978 369.352 -123.256 369.865 -92.0877 367.292C-87.0898 366.852 -81.8494 366.307 -76.435 365.831C-64.7046 364.631 -52.5577 363.395 -40.4755 363.34C-25.0938 363.583 -11.2649 366.23 1.46412 371.661C24.2089 381.25 29.5703 393.628 35.2471 406.734C38.4372 414.432 41.9751 422.267 48.95 430.052C50.4501 431.851 52.2616 433.372 54.0731 434.892C60.8297 440.177 68.5528 444.032 76.102 447.82C86.0167 452.742 95.2359 457.39 100.82 464.626C104.799 469.819 108.361 475.048 112.028 480.52C119.573 491.95 127.223 503.623 140.951 515.685C155.41 528.438 173.323 536.521 197.438 541.622C205.57 543.427 213.208 543.427 220.604 543.532C234.215 543.679 246.992 543.899 261.961 553.836C266.243 556.734 270.25 560.329 274.472 565.417C275.309 566.351 276.146 567.285 276.809 568.151C285.983 579.017 294.531 589.435 311.995 589.495C319.634 589.495 326.293 587.901 333.37 586.271C334.688 585.987 336.249 585.598 337.567 585.314C351.788 581.88 370.559 578.633 390.226 582.782C395.96 584.042 401.73 585.718 407.363 587.742L406.882 588.96L406.708 588.891Z" fill="#FF7A04"/>
</g>
<g opacity="0.7">
<path opacity="0.7" d="M408.427 584.541C405.645 583.442 403.037 582.411 400.429 581.381C393.822 578.771 386.936 575.849 379.985 574.109C363.337 569.946 346.957 571.723 328.878 574.237L327.56 574.521C319.093 575.601 311.216 576.714 302.429 576.059C285.272 574.713 277.873 564.95 270.089 554.632C268.937 552.97 267.542 551.413 266.39 549.751C262.516 544.801 258.857 541.343 254.854 538.756C241.033 529.474 229.024 530.362 216.181 531.324C208.684 531.983 200.84 532.505 192.328 531.154C168.079 527.408 150.688 519.531 137.199 506.357C125.279 494.808 119.117 481.912 113.096 469.677C110.226 463.714 107.076 457.441 103.615 451.446C98.7222 443.478 89.4667 438.414 79.6894 433.143C72.9044 429.457 65.9456 425.701 60.2322 420.829C58.4207 419.309 56.678 417.614 55.2466 415.641C48.7569 407.645 46.3634 399.458 43.9375 391.86C39.9631 379.025 36.304 366.917 13.8382 357.639C1.73597 352.657 -11.3974 350.285 -26.1524 350.491C-41.4978 350.665 -56.6248 353.339 -71.0928 355.871L-75.2213 356.654C-103.498 361.577 -130.388 366.041 -159.898 357.803C-184.09 350.861 -194.805 336.77 -205.941 321.709C-211.351 314.542 -216.971 306.89 -224.358 300.149C-225.543 299.078 -226.728 298.006 -227.913 296.935C-237.18 288.848 -247.802 280.628 -258.251 272.477C-267.62 265.154 -276.256 258.523 -286.248 251.76C-290.077 249.241 -293.453 247.103 -296.656 245.033C-303.582 240.687 -310.889 236.795 -317.953 232.797C-322.894 230.04 -327.73 227.526 -332.255 224.733C-341.268 219.563 -348.368 215.148 -354.599 211.077C-360.203 207.455 -366.434 203.384 -372.354 199.033L-371.942 197.989C-365.917 202.582 -359.686 206.653 -353.908 210.344C-347.677 214.415 -340.681 218.587 -331.563 224C-326.97 226.619 -322.203 229.307 -317.261 232.064C-310.129 235.888 -302.717 240.023 -295.964 244.3C-292.762 246.37 -289.212 248.577 -285.556 251.027C-275.565 257.791 -266.928 264.422 -257.559 271.744C-247.285 279.826 -236.489 288.115 -227.221 296.202C-226.036 297.274 -224.852 298.345 -223.667 299.417C-216.106 306.226 -210.485 313.878 -205.144 321.219C-193.94 336.106 -183.399 350.128 -159.728 356.864C-130.635 365.139 -103.919 360.606 -75.8157 355.615L-71.6872 354.832C-56.9766 352.194 -41.8495 349.52 -26.3303 349.415C-11.4015 349.277 1.90582 351.718 14.1819 356.769C37.412 366.148 41.1074 378.672 45.1869 391.751C47.6129 399.348 49.9013 407.293 56.2171 415.219C57.5433 416.95 59.1122 418.576 60.9236 420.096C66.6371 424.969 73.4221 428.655 80.2758 432.168C90.2269 437.507 99.725 442.466 104.828 450.92C108.531 456.809 111.439 463.188 114.483 469.219C120.504 481.455 126.561 494.107 138.307 505.587C151.517 518.451 168.734 526.259 192.567 530.041C201.078 531.392 208.749 530.801 216.003 530.247C229.019 529.355 241.272 528.361 255.614 537.849C259.896 540.748 263.555 544.205 267.603 549.224C268.929 550.955 270.15 552.444 271.302 554.106C278.807 564.112 286.032 573.806 302.494 574.878C311.107 575.464 318.915 574.525 327.277 573.202L328.595 572.918C346.848 570.473 363.402 568.765 380.292 572.822C387.417 574.631 394.198 577.31 400.91 580.163C403.518 581.193 406.3 582.292 408.908 583.323L408.427 584.541Z" fill="#FF7A04"/>
</g>
<g opacity="0.7">
<path opacity="0.7" d="M410.076 580.364C402.778 578.487 395.855 575.148 389.212 572.121C383.09 569.3 376.794 566.411 370.328 564.46C355.937 560.183 341.15 560.98 326.779 561.74C315.74 562.207 304.39 562.953 293.169 561.336C276.599 559.015 270.485 549.558 264.092 539.791C260.11 533.59 255.848 527.079 248.816 522.49C235.554 513.831 224.139 515.758 211.891 517.759C204.361 519.01 196.59 520.365 187.698 519.467C163.315 517.077 147.073 509.855 134.623 496.085C124.51 485.049 119.978 471.591 115.724 458.443C113.44 451.506 110.876 444.257 107.69 437.566C103.453 428.449 93.7445 423.004 84.4526 417.523C76.2402 412.87 67.9228 407.975 62.7554 400.703C56.9248 392.566 55.4693 384.547 53.9451 376.703C51.3577 363.409 49.3322 351.746 26.5551 342.747L26.3812 342.679C-1.43824 331.688 -32.3151 337.595 -58.8816 344.803C-60.9276 345.403 -62.9049 345.829 -64.7771 346.497C-90.268 353.526 -116.661 360.802 -144.076 355.403C-167.981 350.787 -177.418 334.989 -187.102 318.288C-191.821 310.389 -196.645 302.247 -203.13 295.259C-224.678 272.463 -262.634 253.042 -296.102 235.998C-310.853 228.561 -324.908 221.399 -336.95 214.227C-349.861 206.713 -361.243 199.4 -369.16 190.438L-368.679 189.22C-360.899 198.53 -349.274 205.737 -336.432 213.426C-324.322 220.423 -310.44 227.517 -295.758 235.128C-262.116 252.241 -224.16 271.662 -202.439 294.526C-195.779 301.583 -190.956 309.725 -186.306 317.798C-176.727 334.256 -167.569 349.743 -144.254 354.327C-117.012 359.658 -90.8624 352.487 -65.5454 345.389C-63.4993 344.789 -61.522 344.363 -59.6498 343.695C-32.8407 336.382 -1.72123 330.369 26.4459 341.497L26.6198 341.566C50.0924 350.839 52.3645 363.405 54.8468 376.456C56.2659 384.057 57.7213 392.076 63.4468 399.97C68.3352 406.931 76.7215 411.652 84.76 416.236C94.2945 421.612 104.108 427.3 108.624 436.728C111.984 443.487 114.305 450.842 116.59 457.779C120.912 470.753 125.513 484.037 135.278 494.936C147.449 508.394 163.412 515.305 187.379 517.732C196.096 518.561 203.799 517.379 211.155 516.061C223.645 513.954 235.477 511.99 249.192 521.029C256.503 525.929 260.765 532.441 264.921 538.71C271.209 548.235 277.043 557.38 293.024 559.67C304.07 561.217 315.352 560.645 326.391 560.178C340.936 559.487 355.897 558.759 370.531 562.931C377.17 564.95 383.466 567.84 389.761 570.729C396.579 573.825 403.327 577.094 410.626 578.972L410.076 580.364Z" fill="#FF7A04"/>
</g>
<g opacity="0.7">
<path opacity="0.7" d="M416.402 564.355C408.792 562.757 401.352 560.22 394.154 557.578C387.652 555.21 381.672 553.049 375.417 551.583C361.968 548.483 348.571 549.829 334.342 551.249C323.028 552.412 311.124 553.543 299.349 552.311C282.224 550.374 275.173 540.748 267.806 530.394C263.791 524.785 259.497 518.864 253.472 514.271C250.965 512.476 248.563 510.923 246.371 509.856C237.848 505.483 230.42 505.968 221.916 506.632C220.076 506.71 218.168 506.962 216.154 506.971C211.051 507.168 204.767 507.301 197.853 505.977C183.886 503.678 173.284 500.496 164.793 495.532C157.729 491.534 151.91 486.419 146.816 479.98C142.837 474.787 139.724 468.93 136.881 461.37C135.126 456.653 133.614 451.831 132.276 447.078C129.567 438.162 126.753 429.004 122.172 420.756C116.996 411.469 106.491 406.515 96.508 401.766C88.5423 398.015 81.0982 394.471 76.0762 388.866C70.0434 382.258 67.759 375.32 65.7536 368.694C62.0622 357.177 58.6861 346.388 36.6692 336.483C34.4776 335.416 32.2173 334.523 29.957 333.63C3.73881 323.675 -24.3681 327.659 -48.3386 332.874C-51.3915 333.479 -54.5131 334.257 -57.8087 334.967L-62.665 336.066C-84.4843 340.924 -109.425 346.561 -135.417 341.121C-158.247 336.326 -167.506 321.604 -177.36 305.842C-181.937 298.602 -186.724 290.877 -193.068 284.548C-214.543 262.586 -251.351 243.82 -283.845 227.361C-297.378 220.405 -310.285 213.898 -321.421 207.487C-334.506 199.904 -350.931 190.599 -358.762 176.842C-359.252 176.046 -359.567 175.317 -360.056 174.521C-360.477 173.55 -360.897 172.579 -361.318 171.608L-360.699 170.042C-360.242 171.43 -359.612 172.886 -358.981 174.342C-358.665 175.07 -358.176 175.867 -357.687 176.664C-349.891 190.003 -333.883 199.345 -320.903 206.686C-309.768 213.097 -296.861 219.604 -283.327 226.56C-250.66 243.087 -213.852 261.853 -192.029 283.953C-185.58 290.524 -180.793 298.249 -176.216 305.489C-166.572 320.766 -157.313 335.488 -135.178 340.008C-109.534 345.311 -84.836 339.78 -63.0168 334.921L-58.1604 333.822C-55.0388 333.044 -51.9859 332.439 -48.6903 331.729C-24.546 326.582 3.80353 322.493 30.3695 332.586C32.6298 333.479 35.064 334.441 37.2556 335.508C59.7941 345.619 63.4168 357.31 67.0718 368.41C69.146 374.862 71.2565 381.731 77.1842 388.097C81.9271 393.39 89.3712 396.935 97.163 400.616C107.494 405.503 118.173 410.526 123.385 420.23C127.897 428.651 130.711 437.81 133.42 446.725C134.759 451.479 136.445 456.369 138.025 461.017C140.868 468.578 144.05 474.261 147.855 479.385C152.776 485.755 158.489 490.627 165.553 494.625C173.939 499.346 184.299 502.634 198.091 504.864C204.901 505.945 210.942 505.918 216.045 505.721C218.058 505.712 219.967 505.46 221.807 505.382C230.484 504.787 238.086 504.37 247.132 508.949C249.497 510.085 251.899 511.638 254.511 513.675C260.71 518.337 265.004 524.258 269.193 529.936C276.281 539.979 283.053 549.293 299.587 551.198C311.294 552.604 323.024 551.404 334.338 550.241C347.977 548.79 362.138 547.544 375.829 550.539C382.258 552.073 388.586 554.372 394.741 556.602C401.938 559.245 409.309 561.956 416.988 563.38L416.576 564.424L416.402 564.355Z" fill="#FF7A04"/>
</g>
<g opacity="0.7">
<path opacity="0.7" d="M422.725 548.346C414.909 547.269 407.263 545.255 399.79 543.308C393.013 541.637 386.653 539.929 380.608 538.949C367.927 536.957 355.505 538.889 342.25 540.895C330.488 542.685 318.308 544.512 305.806 543.596C287.711 542.08 279.685 531.868 271.343 520.928C267.469 515.978 263.491 510.785 258.335 506.536C255.792 504.324 253.738 502.909 251.858 501.563C244.373 496.594 238.643 496.342 231.211 495.82C229.44 495.724 227.669 495.628 225.724 495.463C220.654 495.069 214.888 494.4 208.216 492.972C197.512 490.554 185.382 487.169 175.601 480.891C169.022 476.683 163.583 471.114 159.043 464.291C155.654 459.13 153.026 453.063 150.669 445.292C149.614 441.857 148.732 438.491 147.92 434.952C145.239 424.438 142.454 413.681 136.514 404.293C130.295 394.594 118.925 390.304 108.076 386.219C100.878 383.576 94.2026 381.14 89.5001 377.271C82.986 371.881 80.1517 366.335 77.107 360.304C72.2429 350.738 67.2737 340.929 46.5386 330.324C44.347 329.257 42.1554 328.19 39.9638 327.123C13.4587 314.841 -14.3773 317.121 -38.2143 320.981C-42.1002 321.659 -45.9861 322.337 -49.872 323.014L-55.0761 323.976C-78.2175 328.111 -102.261 332.493 -127.177 326.874C-148.757 321.97 -158.013 308.255 -167.931 293.674C-172.472 286.851 -177.36 279.891 -183.425 273.873C-205.001 252.676 -240.661 234.564 -272.354 218.624C-284.565 212.391 -296.15 206.608 -306.554 200.888C-319.254 193.859 -334.81 184.897 -342.775 172.496C-343.265 171.699 -343.649 171.145 -344.138 170.349C-348.998 161.79 -349.972 152.553 -350.736 143.802L-349.705 141.192C-349.774 141.366 -349.669 141.609 -349.669 141.609C-348.937 150.951 -348.169 160.709 -343.167 169.927C-342.852 170.655 -342.294 171.278 -341.979 172.006C-334.118 184.164 -318.668 192.883 -306.141 199.844C-295.737 205.563 -284.222 211.521 -271.941 217.58C-240.248 233.52 -204.241 251.769 -182.734 273.141C-176.495 279.227 -171.675 286.361 -167.134 293.184C-157.321 307.522 -148.171 320.994 -127.355 325.798C-102.786 331.28 -78.8119 327.072 -55.8443 322.868L-50.6402 321.906C-46.5117 321.123 -42.8684 320.551 -38.9825 319.873C-14.9717 316.082 13.1069 313.696 39.9599 326.115C42.3253 327.251 44.5169 328.318 46.7084 329.385C67.9652 340.197 73.2498 350.734 77.9036 359.814C80.8431 365.603 83.6775 371.148 89.9125 376.227C94.4412 380.027 101.117 382.464 108.141 385.037C118.816 389.053 130.95 393.445 137.379 403.629C143.25 413.191 146.21 424.016 148.89 434.53C149.877 438.139 150.758 441.505 151.64 444.87C153.823 452.573 156.52 458.466 159.734 463.559C164.101 470.313 169.434 475.639 175.839 479.778C185.447 485.988 197.403 489.303 207.933 491.653C214.536 493.256 220.371 493.75 225.199 494.249C227.144 494.414 228.915 494.51 230.686 494.607C237.944 495.06 244.264 495.344 252.096 500.45C254.045 501.622 256.204 503.28 258.748 505.492C263.903 509.741 268.056 515.003 271.861 520.127C280.097 530.824 287.844 540.725 305.349 542.209C317.609 543.23 329.788 541.403 341.551 539.612C354.806 537.607 367.47 535.569 380.325 537.63C386.612 538.505 392.973 540.213 399.681 542.058C407.154 544.004 414.8 546.019 422.79 547.164L422.377 548.208L422.725 548.346Z" fill="#FF7A04"/>
</g>
<g opacity="0.7">
<path opacity="0.7" d="M429.119 532.163C421.582 531.398 414.356 530.354 407.199 529.136C399.626 527.955 392.469 526.736 385.801 526.315C373.889 525.431 362.267 527.881 349.987 530.473C337.775 532.891 325.252 535.588 312.022 534.988C292.714 533.999 283.119 522.161 273.908 510.878C270.523 506.724 266.965 502.502 263.027 498.733C260.936 496.902 258.915 494.896 257.103 493.376C250.484 487.743 245.862 486.722 239.191 485.293C237.905 484.986 236.445 484.611 234.985 484.235C233.873 483.997 232.587 483.69 231.302 483.383C227.444 482.463 223.065 481.336 218.164 480.004C206.798 476.72 195.047 472.883 185.994 466.289C179.795 461.627 174.773 456.022 171.029 448.709C167.427 442.055 165.627 434.907 164.39 429.389C163.861 427.168 163.505 425.015 162.975 422.794C160.497 410.751 157.982 398.291 150.789 388.006C143.422 377.652 130.284 374.272 118.781 371.337C112.768 369.766 106.929 368.264 102.788 366.025C95.2028 361.821 91.677 357.008 87.4193 351.504C81.7302 344.026 75.099 335.371 56.2038 324.687C54.0809 323.446 51.9581 322.205 49.7665 321.138C22.8004 306.462 -6.0828 307.322 -28.1203 309.68C-32.7017 310.083 -37.178 310.729 -41.8968 311.48L-42.9724 311.659C-45.1236 312.016 -47.206 312.199 -49.1834 312.625C-71.5646 315.853 -94.5362 319.049 -118.62 313.357C-139.019 308.517 -148.376 295.566 -158.359 282.167C-162.932 275.935 -167.61 269.46 -173.639 263.859C-195.142 243.495 -229.827 225.97 -260.372 210.684C-271.435 205.106 -281.871 199.978 -291.232 194.67C-303.306 188.09 -318.198 179.993 -326.333 168.531C-326.891 167.909 -327.206 167.18 -327.591 166.626C-333.041 158.036 -334.501 149.01 -335.924 140.401C-336.635 136.096 -337.278 131.618 -338.58 127.281C-339.283 124.991 -339.987 122.702 -340.933 120.517L-340.314 118.951C-339.158 121.621 -338.244 124.396 -337.504 127.103C-336.271 131.613 -335.628 136.092 -334.917 140.396C-333.457 149.422 -332.034 158.031 -326.689 166.379C-326.305 166.933 -325.816 167.73 -325.431 168.284C-317.332 179.329 -302.614 187.357 -290.714 193.869C-281.285 199.002 -270.917 204.305 -259.854 209.883C-229.136 225.237 -194.277 242.831 -172.6 263.264C-166.571 268.864 -161.893 275.34 -157.214 281.815C-147.405 295.145 -138.259 307.61 -118.45 312.418C-94.7828 318.147 -72.8181 314.955 -49.6039 311.654C-47.4527 311.297 -45.3702 311.114 -43.3929 310.688L-42.3173 310.509C-37.4246 309.827 -32.9483 309.181 -28.3669 308.778C-6.08682 306.315 23.1442 305.591 50.458 320.406C52.5808 321.647 54.7724 322.714 57.0691 324.023C76.3121 334.844 83.1536 343.985 88.5636 351.151C92.6475 356.587 96.0682 361.157 103.48 365.292C107.62 367.531 113.285 368.965 119.124 370.467C130.976 373.54 144.461 377.057 151.933 387.653C159.3 398.007 161.92 410.71 164.399 422.753C164.928 424.974 165.215 427.3 165.814 429.347C167.051 434.865 168.745 441.771 172.347 448.425C176.16 455.564 180.834 461.032 186.928 465.451C195.807 471.976 207.384 475.745 218.577 478.96C223.409 480.466 227.683 481.35 231.54 482.271C232.826 482.577 234.112 482.884 235.224 483.122C236.684 483.498 238.143 483.873 239.429 484.18C246.275 485.678 251.07 486.768 257.969 492.712C259.78 494.232 261.976 496.306 263.892 498.069C267.831 501.838 271.389 506.06 274.773 510.214C284.263 521.808 293.195 532.78 311.913 533.738C324.9 534.443 337.424 531.746 349.461 529.259C361.916 526.736 373.537 524.286 385.623 525.239C392.291 525.66 399.622 526.947 407.195 528.129C414.352 529.347 421.752 530.46 429.463 531.293L429.119 532.163Z" fill="#FF7A04"/>
</g>
<g opacity="0.7">
<path opacity="0.7" d="M435.512 515.979C431.38 515.755 427.316 515.357 423.183 515.132C411.445 514.317 400.297 513.534 391.061 513.506C379.986 513.557 369.234 516.35 357.928 519.528C345.373 522.816 332.332 526.314 318.548 526.099C297.436 525.604 286.204 512.315 275.424 499.406C272.982 496.429 270.539 493.453 267.96 490.824C266.67 489.51 265.554 488.264 264.612 487.088C263.88 486.396 263.391 485.599 262.659 484.908C256.068 477.677 252.833 476.198 245.078 472.933L244.382 472.658C241.495 471.316 237.775 470.048 233.533 468.573C231.969 467.955 230.161 467.442 228.249 466.687L227.901 466.549C216.636 462.501 205.023 458.316 196.592 451.163C190.705 446.222 186.411 440.301 183.152 432.777C180.313 426.224 179.141 419.524 178.247 413.136L177.888 409.977C176.17 397.026 174.132 382.341 165.374 371.437C156.685 360.36 141.226 358.276 128.893 356.422C124.134 355.748 119.723 355.213 116.176 354.013C106.339 350.931 101.947 346.782 95.1867 340.49C88.9841 334.821 81.3864 327.595 66.2112 318.18C64.0884 316.939 62.0343 315.524 59.9115 314.283C38.7478 300.691 14.6321 295.59 -17.858 297.439C-22.6132 297.774 -27.4372 298.282 -33.2681 298.795C-36.6 299.088 -40.0006 299.555 -43.1586 299.917C-65.8553 302.417 -87.0598 304.702 -110.415 298.694C-129.565 293.743 -138.987 281.974 -148.897 269.409C-153.502 263.767 -158.213 257.883 -163.789 252.662C-185.567 232.994 -219.452 215.986 -249.543 201.081C-258.936 196.364 -267.982 191.785 -276.332 187.48C-288.474 181.074 -302.287 173.806 -310.556 163.7C-311.114 163.077 -311.498 162.523 -311.882 161.969C-317.607 154.074 -319.827 145.955 -322.115 138.01C-323.033 134.227 -324.125 130.376 -325.633 126.562C-328.265 119.487 -331.831 113.25 -336.611 107.539L-336.129 106.321C-331.071 112.343 -327.226 118.891 -324.315 126.278C-322.807 130.092 -321.784 134.117 -320.797 137.726C-318.577 145.845 -316.463 153.721 -310.774 161.199C-310.39 161.753 -309.832 162.376 -309.448 162.93C-301.284 172.794 -287.645 179.993 -275.676 186.331C-267.395 190.809 -258.455 195.146 -249.062 199.863C-219.039 214.942 -184.912 231.845 -163.029 251.756C-157.279 257.045 -152.568 262.929 -147.963 268.571C-138.158 280.894 -128.91 292.594 -110.282 297.338C-87.274 303.209 -66.0695 300.924 -43.6155 298.529C-40.2836 298.236 -36.8829 297.769 -33.551 297.476C-27.8941 296.894 -23.0701 296.386 -18.141 296.121C14.7656 294.234 39.0552 299.404 60.5665 313.133C62.6206 314.548 64.7435 315.789 66.8663 317.03C82.1466 326.688 89.8131 333.74 96.0157 339.409C102.602 345.633 106.889 349.539 116.553 352.552C119.925 353.683 124.336 354.219 128.922 354.823C141.497 356.573 157.13 358.725 166.203 370.357C175.171 381.745 177.209 396.431 179.032 409.624L179.392 412.784C180.354 418.998 181.526 425.697 184.191 432.181C187.45 439.705 191.639 445.384 197.352 450.256C205.678 457.166 217.291 461.352 228.313 465.505L228.661 465.643C230.4 466.329 232.207 466.842 233.772 467.461C238.014 468.935 241.734 470.204 244.621 471.545L245.316 471.82C253.003 475.259 256.48 476.633 263.35 484.175C263.908 484.798 264.64 485.489 265.303 486.355C266.245 487.532 267.535 488.846 268.651 490.092C271.162 492.894 273.778 495.939 276.289 498.742C286.964 511.408 297.917 524.386 318.196 524.954C331.912 525.343 344.778 521.776 357.334 518.488C368.814 515.379 379.566 512.586 390.883 512.43C400.362 512.352 411.51 513.135 423.248 513.951C427.555 514.244 431.687 514.468 435.993 514.761L435.512 515.979Z" fill="#FF7A04"/>
</g>
<g opacity="0.7">
<path opacity="0.7" d="M441.975 499.622L441.801 499.554C426.731 499.031 409.893 499.421 396.323 500.698C386.085 501.683 376.202 504.819 365.765 508.341C352.866 512.499 339.482 516.867 324.727 517.073C300.737 517.252 286.92 500.326 274.778 485.27L272.615 482.605C270.73 480.251 269.299 478.277 267.868 476.303L266.889 474.71C262.001 467.749 260.533 465.359 253.849 460.908C250.194 458.458 244.767 455.912 238.577 453.265L235.516 451.854C225.395 447.454 214.926 442.916 207.434 435.932C201.858 430.712 198.049 424.58 195.413 416.498C193.234 409.803 192.615 402.719 192.243 396.536C191.322 383.096 190.178 366.148 179.75 354.384C169.217 342.377 151.162 342.286 138.142 342.171C135.121 342.185 132.101 342.198 129.808 341.896C115.361 340.815 109.789 336.602 96.2067 326.207C91.0876 322.374 84.7838 317.47 76.2197 311.673C73.9918 310.189 71.9377 308.774 70.1262 307.253C48.7807 291.578 24.7621 284.705 -7.59452 285.199C-12.4549 285.291 -17.384 285.556 -23.32 285.826C-27.8326 286.055 -32.2401 286.527 -36.5789 286.825C-58.584 288.592 -79.271 290.076 -101.793 283.994C-119.763 279.108 -129.285 268.104 -139.26 256.72C-143.655 251.563 -148.398 246.27 -153.764 241.535C-176.096 222.251 -209.702 205.555 -239.341 191.029C-246.89 187.242 -253.986 183.835 -260.84 180.323C-272.356 174.365 -285.542 167.546 -293.944 158.795C-294.328 158.241 -294.955 157.793 -295.339 157.238C-301.408 150.214 -304.493 142.759 -307.299 135.615C-308.666 132.46 -309.79 129.199 -311.573 126.081C-315.984 116.895 -322.369 109.142 -331.042 102.095C-331.774 101.403 -332.748 100.817 -333.48 100.125L-333.068 99.0813C-332.162 99.8415 -331.187 100.428 -330.282 101.188C-321.503 108.478 -315.014 116.474 -310.602 125.66C-309.062 128.883 -307.764 132.213 -306.397 135.368C-303.486 142.754 -300.612 149.724 -294.474 156.574C-294.089 157.129 -293.637 157.509 -293.079 158.131C-284.85 166.814 -272.465 173.115 -260.427 179.279C-253.574 182.791 -246.546 186.372 -238.928 189.985C-209.184 204.754 -175.336 221.345 -153.073 240.802C-147.533 245.606 -142.79 250.899 -138.395 256.056C-128.594 267.371 -119.177 278.133 -101.555 282.881C-79.2749 289.068 -58.5193 287.411 -36.7567 285.748C-32.418 285.451 -27.8366 285.048 -23.4978 284.75C-17.5619 284.48 -12.6328 284.215 -7.77241 284.123C24.7581 283.697 48.9506 290.64 70.8177 306.521C72.8718 307.936 74.752 309.282 76.9112 310.94C85.4066 316.911 91.779 321.642 96.8981 325.475C110.48 335.87 115.599 339.703 129.63 340.82C131.992 340.948 134.77 341.04 137.964 341.095C151.401 341.173 169.629 341.333 180.72 353.963C191.427 366.039 192.502 383.16 193.355 396.775C193.796 402.783 194.414 409.867 196.42 416.493C198.951 424.333 202.586 430.396 208.056 435.373C215.375 442.288 225.739 446.584 235.86 450.984L238.92 452.395C245.111 455.042 250.537 457.588 254.367 460.106C261.224 464.626 262.971 467.328 267.86 474.289L268.838 475.882C270.096 477.787 271.632 480.004 273.411 482.115L275.574 484.78C287.438 499.525 300.975 516.139 324.375 515.928C338.888 515.828 352.098 511.39 364.997 507.233C375.608 503.78 385.559 500.469 395.797 499.485C409.368 498.207 426.448 497.713 441.449 498.409C441.623 498.477 441.866 498.372 442.214 498.51L441.801 499.554L441.975 499.622Z" fill="#FF7A04"/>
</g>
<g opacity="0.7">
<path opacity="0.7" d="M448.436 483.265C448.02 483.302 447.604 483.339 447.256 483.201C434.409 483.155 418.93 484.685 401.341 487.995C392.008 489.74 382.995 493.22 373.67 496.98C360.359 502.182 346.562 507.594 331.079 508.116C305.148 509.137 287.988 489.483 277.374 474.628C275.768 472.585 274.475 470.264 273.249 467.768C271.814 464.787 270.763 462.36 269.99 460.244C268.377 456.187 267.184 453.1 263.141 449.089C259.656 445.7 254.019 442.669 248.661 439.948C246.991 439.088 245.321 438.227 243.651 437.366C234.258 432.649 224.518 427.795 217.789 420.912C212.525 415.412 209.27 408.896 207.362 400.498C205.878 394.078 205.886 387.442 205.927 380.216C206.073 364.582 204.585 348.505 193.987 337.679C180.984 324.294 159.193 327.554 146.181 329.454C145.105 329.633 143.855 329.743 142.954 329.99C121.891 332.934 115.692 328.273 85.9159 305.445C83.9306 303.856 81.9452 302.267 79.9599 300.678C58.5012 282.745 34.511 274.273 2.53045 273.307C-3.02542 273.124 -8.71875 273.289 -13.5791 273.38C-19.0986 273.614 -24.6181 273.847 -29.9637 274.149C-51.2774 275.184 -71.5842 276.214 -93.6214 269.922C-110.41 265.1 -119.928 255.103 -130.073 244.658C-134.501 240.092 -139.034 235.284 -144.189 231.035C-167.771 211.861 -201.793 195.201 -231.779 180.538C-236.684 178.198 -241.415 175.927 -245.903 173.55L-246.425 173.344C-257.836 167.629 -269.489 162.019 -277.887 154.276C-278.34 153.896 -278.898 153.273 -279.351 152.893C-285.869 146.496 -289.609 140.19 -293.454 133.642C-294.853 131.077 -296.495 128.618 -298.068 125.985C-303.203 118.122 -309.689 111.134 -318.22 104.746C-322.434 101.673 -327.063 98.6373 -331.936 95.7065L-331.523 94.6624C-326.651 97.5932 -321.847 100.698 -317.529 104.013C-308.823 110.47 -302.164 117.527 -297.097 125.564C-295.351 128.265 -293.883 130.656 -292.484 133.22C-288.639 139.769 -285.072 146.006 -278.486 152.229C-278.033 152.609 -277.649 153.163 -277.022 153.612C-268.903 161.044 -257.144 166.896 -245.839 172.369L-245.317 172.575C-240.76 174.778 -236.029 177.049 -231.193 179.563C-201.032 194.295 -166.942 210.78 -143.255 230.197C-137.926 234.515 -133.393 239.323 -128.965 243.889C-118.994 254.265 -109.581 264.019 -93.209 268.878C-71.4143 275.275 -51.2814 274.177 -29.9677 273.142C-24.6221 272.84 -19.1026 272.606 -13.5831 272.373C-8.72277 272.281 -3.02941 272.116 2.52643 272.299C34.8547 273.403 59.0188 281.944 80.8252 300.014C82.8106 301.603 84.7959 303.192 86.7812 304.781C116.105 327.229 122.129 331.822 142.707 329.088C143.783 328.909 144.858 328.731 145.934 328.552C159.189 326.547 181.57 323.318 194.958 337.258C205.835 348.395 207.253 364.647 207.144 380.697C207.103 387.923 207.164 394.384 208.647 400.805C210.451 408.96 213.774 415.303 218.691 420.665C225.245 427.479 234.812 432.264 244.032 436.912C245.701 437.773 247.371 438.634 249.041 439.495C254.573 442.284 260.315 445.558 263.974 449.016C268.191 453.096 269.558 456.251 271.102 460.482C271.875 462.598 272.752 464.956 274.256 467.763C275.481 470.259 276.844 472.407 278.275 474.38C288.61 488.924 305.492 508.267 330.764 507.388C346.073 506.797 359.627 501.49 372.939 496.288C382.437 492.597 391.519 488.943 400.852 487.199C418.441 483.888 433.92 482.358 446.94 482.473C447.531 482.505 448.121 482.537 448.711 482.569L448.436 483.265Z" fill="#FF7A04"/>
</g>
<g opacity="0.7">
<path opacity="0.7" d="M454.898 466.908C454.134 466.807 453.475 466.949 452.711 466.849C436.707 467.165 419.711 471.515 406.602 475.187C398.244 477.518 390.274 481.41 381.713 485.271C367.921 491.691 353.885 498.216 337.363 499.333C312.58 501.009 292.581 483.452 282.133 466.651C280.665 464.26 279.545 462.007 278.632 459.232C277.366 455.312 276.832 452.084 276.509 449.341C276.076 445.348 275.68 441.771 272.539 437.513C269.397 433.254 263.793 429.632 258.746 426.632C256.623 425.391 254.501 424.15 252.204 422.84C243.47 417.982 234.283 412.743 228.388 405.787C223.435 400.008 220.491 393.212 219.485 384.567C218.729 377.831 219.222 370.985 219.647 364.312L219.716 364.139C220.775 351.28 220.736 332.555 208.399 321.043C197.526 310.913 180.475 309.81 156.342 317.979C133.84 325.585 123.654 322.366 95.8551 299.112C93.8698 297.523 91.9532 295.76 90.0366 293.997C68.4648 273.807 44.7455 263.631 12.7245 261.241C8.07042 260.81 2.86233 260.764 -3.70037 260.586C-10.0892 260.476 -16.6155 260.714 -22.7254 260.915C-43.6589 261.497 -63.343 261.968 -85.0002 255.223C-100.782 250.396 -110.47 241.338 -120.542 231.726C-124.76 227.646 -129.22 223.671 -134.096 219.733C-160.286 199.529 -198.202 181.532 -228.674 167.08L-232.256 165.463C-242.587 160.577 -253.266 155.554 -261.45 149.303C-261.903 148.923 -262.356 148.543 -262.983 148.094C-270.123 142.255 -274.903 136.545 -279.856 130.766C-281.356 128.966 -282.856 127.167 -284.356 125.367C-290.041 118.896 -296.871 112.778 -305.261 107.05C-311.144 103.116 -317.792 99.0817 -324.16 95.3587C-326.283 94.1177 -328.232 92.9454 -330.355 91.7044L-329.942 90.6603C-327.819 91.9013 -325.697 93.1423 -323.574 94.3833C-317.031 98.175 -310.384 102.209 -304.501 106.143C-295.937 111.94 -289.107 118.058 -283.317 124.772C-281.817 126.571 -280.317 128.371 -278.817 130.171C-273.932 136.124 -269.258 141.591 -262.117 147.43C-261.664 147.81 -261.212 148.19 -260.759 148.57C-252.749 154.752 -242.07 159.776 -231.912 164.593L-228.33 166.21C-197.858 180.662 -159.942 198.659 -133.578 218.932C-128.633 222.696 -124.242 226.845 -119.851 230.994C-109.71 240.432 -100.37 249.352 -84.7616 254.11C-63.2783 260.787 -43.7681 260.247 -22.8345 259.665C-16.5508 259.532 -10.1984 259.226 -3.63564 259.404C2.99581 259.409 8.13518 259.629 12.7893 260.059C44.9841 262.519 69.1199 272.657 90.9707 293.159C92.8873 294.922 94.8039 296.685 96.7892 298.274C125.773 322.599 134.875 323.982 155.991 316.834C180.608 308.454 198.076 309.521 209.402 320.031C222.017 331.855 221.989 350.753 221.034 363.855L220.965 364.029C220.367 370.632 219.873 377.478 220.803 384.283C221.878 392.754 224.716 399.307 229.496 405.018C235.46 411.8 244.299 416.901 253.033 421.76C255.156 423.001 257.452 424.31 259.575 425.551C264.795 428.62 270.574 432.311 273.82 436.812C277.067 441.313 277.463 444.89 278.001 449.126C278.324 451.869 278.684 455.028 280.019 458.774C280.827 461.307 281.947 463.56 283.415 465.95C293.584 482.44 313.13 499.617 337.323 497.909C353.602 496.897 367.638 490.372 381.257 483.883C389.817 480.023 397.787 476.131 406.388 473.694C419.566 469.848 436.735 465.566 452.739 465.251C453.746 465.246 454.579 465.173 455.586 465.168L454.898 466.908Z" fill="#FF7A04"/>
</g>
<g opacity="0.7">
<path opacity="0.7" d="M461.361 450.551C460.354 450.555 459.173 450.491 458.098 450.67C442.13 451.402 424.863 457.456 411.794 462.553C404.411 465.47 397.448 469.357 389.894 473.213C375.794 480.92 361.208 488.837 343.647 490.55C318.763 492.991 296.338 476.487 286.893 458.673C285.668 456.178 284.685 453.576 284.119 450.939C283.234 446.566 283.497 442.847 283.865 439.372C284.297 434.714 284.629 430.822 282.11 426.005C280.08 421.984 276.142 418.215 269.005 413.384C266.603 411.832 264.028 410.211 261.452 408.589C253.03 403.451 244.502 398.071 239.092 390.904C234.45 384.846 232.06 377.665 231.608 368.635C231.373 362.105 232.389 355.465 233.266 349.173L233.4 347.818C236.34 327.655 232.81 313.185 222.637 304.337C204.939 289.097 177.596 301.832 169.662 306.141C147.523 317.914 133.743 318.707 105.726 292.953C103.809 291.189 101.961 289.252 100.113 287.315C78.2182 264.382 55.154 253.058 23.0927 249.243C18.2647 248.744 12.7776 248.386 6.28366 248.034C-1.04328 247.754 -8.26508 247.718 -15.313 247.75C-35.8665 247.878 -55.3443 247.827 -76.5162 240.871C-91.2913 236.04 -101.602 227.541 -111.391 219.248C-115.467 215.827 -119.717 212.337 -124.278 209.127C-152.481 188.932 -189.702 171.21 -215.232 159.515L-218.989 157.83C-228.066 153.841 -237.249 149.61 -244.976 144.746C-245.429 144.366 -245.951 144.16 -246.404 143.78C-255.037 138.157 -261.377 132.836 -267.996 127.203L-270.434 125.234C-276.427 120.05 -283.668 114.976 -292.265 109.77C-295.467 107.7 -298.738 105.804 -302.357 103.771C-311.302 98.4265 -320.42 93.0138 -328.499 87.0057L-328.086 85.9616C-320.007 91.9697 -310.889 97.3825 -301.771 102.795C-298.152 104.828 -294.95 106.898 -291.679 108.794C-283.082 114.001 -275.909 119.249 -269.674 124.327L-267.236 126.296C-260.338 132.24 -254.276 137.25 -245.817 142.805C-245.365 143.185 -244.843 143.391 -244.39 143.771C-236.837 148.566 -227.585 152.623 -218.508 156.611L-214.751 158.297C-188.978 169.887 -151.583 187.678 -123.449 208.047C-118.888 211.257 -114.707 214.92 -110.631 218.341C-100.32 226.84 -90.6362 234.891 -76.2776 239.758C-55.2796 246.646 -35.9756 246.628 -15.4222 246.5C-8.37423 246.468 -1.15242 246.504 6.24326 246.61C12.5633 246.894 18.2243 247.319 23.0523 247.819C55.704 251.665 78.942 263.059 101.116 286.303C102.964 288.24 104.812 290.177 106.797 291.766C133.735 316.692 146.581 316.738 169.205 304.754C177.382 300.339 205.384 287.463 223.882 303.22C234.23 312.136 237.97 327.092 235.066 347.671L234.932 349.027C234.055 355.319 233.039 361.959 233.169 368.246C233.516 377.034 235.8 383.971 240.337 389.787C245.642 396.711 254.17 402.091 262.419 407.161C264.994 408.782 267.57 410.403 269.972 411.955C277.282 416.855 281.221 420.624 283.529 424.956C286.154 430.016 285.684 434.257 285.32 438.74C284.952 442.215 284.758 445.76 285.643 450.133C286.209 452.771 287.087 455.129 288.312 457.625C297.337 474.467 319.693 491.145 343.57 488.709C360.958 486.928 375.301 479.116 389.332 471.583C396.78 467.484 403.917 463.665 411.301 460.748C424.613 455.547 441.948 449.319 458.09 448.655C459.513 448.614 460.694 448.678 461.943 448.568L461.187 450.482L461.361 450.551Z" fill="#FF7A04"/>
</g>
<g opacity="0.7">
<path opacity="0.7" d="M467.823 434.194C466.4 434.235 465.045 434.103 463.553 434.318C451.196 435.069 435.454 440.316 416.987 449.919C410.715 453.074 404.759 456.957 398.386 460.877C383.91 470.045 368.775 479.354 350.105 481.836C325.051 485.216 299.674 468.551 291.758 450.939C290.601 448.27 289.861 445.563 289.607 442.646C289.102 437.82 290.092 433.785 291.257 429.82C292.418 424.847 293.683 420.116 291.787 414.74C290.032 410.024 286.3 405.733 279.301 400.554C276.689 398.516 273.834 396.583 270.98 394.651C263.042 389.302 254.826 383.642 249.832 376.439C245.328 370.032 243.424 362.641 243.942 353.19C244.229 346.866 245.697 340.606 247.096 334.52L247.711 331.947C250.78 318.071 251.468 299.031 237.502 288.082C221.725 275.612 198.356 283.882 183.435 294.685C160.759 310.872 143.205 314.6 116.118 287C114.27 285.063 112.423 283.126 110.643 281.015C88.9465 255.545 65.9107 242.622 33.6715 237.731C28.5645 236.92 22.9722 236.321 16.547 235.794C8.35072 235.171 0.364668 235.034 -7.44751 234.965C-27.7947 234.571 -46.7873 234.31 -67.8217 227.006C-81.7638 222.101 -92.3497 214.298 -102.483 206.875C-106.243 204.182 -110.109 201.247 -114.112 198.66C-138.445 182.408 -168.82 166.183 -199.773 152.949C-202.555 151.85 -205.268 150.577 -208.224 149.409C-215.11 146.487 -222.17 143.497 -228.466 140.607L-229.962 139.815C-239.355 135.098 -247.289 130.757 -256.407 125.344C-263.576 121.104 -271.161 116.9 -278.99 112.802C-297.048 103.052 -315.353 92.4007 -324.782 78.617L-324.301 77.3989C-315.357 91.3932 -296.878 102.113 -278.646 111.932C-270.886 116.204 -263.058 120.303 -256.063 124.474C-246.945 129.887 -239.185 134.16 -229.618 138.945L-228.122 139.737C-221.721 142.87 -214.835 145.791 -207.88 148.539C-205.098 149.638 -202.211 150.98 -199.429 152.079C-168.303 165.382 -137.754 181.675 -113.42 197.927C-109.417 200.514 -105.552 203.45 -101.791 206.142C-91.2053 213.945 -81.1775 221.126 -67.4093 225.962C-46.5487 233.197 -27.6249 233.632 -7.4515 233.957C0.360652 234.026 8.34671 234.164 16.543 234.786C22.9682 235.313 28.5604 235.913 33.7362 236.55C66.3231 241.578 89.7067 254.638 111.683 280.42C113.462 282.531 115.31 284.468 117.157 286.405C143.755 313.207 160.649 309.622 182.772 293.819C198.179 282.806 221.963 274.499 238.541 287.486C252.96 298.815 252.204 318.03 249.17 332.322L248.556 334.896C247.157 340.981 245.862 347.31 245.47 353.391C245.09 362.495 246.889 369.643 251.219 375.981C256.039 383.116 264.15 388.533 272.088 393.881C274.942 395.814 277.797 397.746 280.409 399.784C285.249 403.306 290.894 408.352 293.279 414.525C295.281 420.144 294.12 425.117 292.891 430.264C291.969 434.124 290.978 438.159 291.309 442.917C291.459 445.591 292.199 448.297 293.424 450.793C301.13 467.919 325.88 484.135 350.275 480.897C368.702 478.521 383.663 469.143 398.14 459.975C404.27 456.161 410.469 452.172 416.74 449.017C435.382 439.483 451.192 434.061 463.723 433.379C465.389 433.233 466.986 433.26 468.584 433.287L468.171 434.332L467.823 434.194Z" fill="#FF7A04"/>
</g>
<g opacity="0.7">
<path opacity="0.7" d="M474.285 417.837C472.687 417.809 470.848 417.887 469.008 417.965C451.099 419.54 430.351 431.863 422.247 437.111C417.156 440.33 412.033 444.14 407.221 447.67C392.231 458.647 376.582 469.765 356.563 473.122C332.968 476.876 303.92 462.383 296.69 443.031C295.603 440.187 295.174 437.201 295.093 434.353C295.073 429.316 296.861 424.791 298.579 420.441C300.779 414.873 302.737 409.41 301.289 403.406C299.914 398.236 296.457 393.249 289.664 387.548C286.947 385.268 283.813 383.024 280.922 380.675C273.296 375.047 265.391 369.107 260.709 361.625C256.585 354.765 255.166 347.163 256.343 337.57C257.083 331.626 258.83 325.677 260.577 319.729C260.884 318.442 261.366 317.224 261.673 315.937C264.31 306.719 268.766 283.736 252.018 271.687C234.643 259.191 211.494 269.961 196.86 283.09C182.052 296.15 169.61 301.695 157.661 300.394C147.241 299.295 136.869 292.985 126.093 281.083C124.419 279.215 122.466 277.035 120.756 274.75C99.2571 246.743 76.2497 232.222 43.9013 226.081C38.5153 224.959 32.7492 224.29 26.3928 223.59C17.501 222.692 8.7507 222.454 0.243052 222.111C-19.7928 221.437 -38.8218 220.759 -59.4761 213.002C-73.1068 207.818 -84.558 200.679 -95.6614 193.677C-98.5849 191.919 -101.44 189.986 -104.363 188.228C-123.958 176.262 -153.504 158.957 -184.732 146.418C-193.773 142.847 -203.3 139.485 -212.304 136.33L-213.869 135.712C-217.068 134.649 -220.266 133.587 -223.222 132.419C-229.967 130.157 -236.295 127.858 -242.797 125.491C-249.752 122.743 -257.923 119.515 -266.063 115.695C-282.69 107.92 -303.781 95.1617 -309.789 77.2979C-314.075 64.7415 -309.853 52.5286 -305.7 40.4897C-303.37 32.5584 -300.487 24.2425 -300.139 15.7296L-298.902 12.5974C-298.55 22.3924 -301.672 31.8212 -304.899 41.0072C-309.19 53.3941 -313.137 64.911 -308.956 77.2247C-302.984 94.6718 -282.241 107.292 -265.893 114.757C-257.754 118.576 -249.582 121.804 -242.558 124.378C-235.951 126.988 -229.728 129.044 -222.983 131.307C-219.959 132.3 -216.76 133.363 -213.631 134.599L-212.066 135.217C-203.061 138.372 -193.534 141.734 -184.493 145.306C-153.265 157.844 -123.545 175.218 -103.951 187.184C-101.027 188.942 -98.1036 190.701 -95.2489 192.633C-83.6239 199.841 -72.8682 206.705 -59.2375 211.889C-38.7571 219.578 -19.9019 220.187 -0.0399363 220.792C8.46771 221.135 17.218 221.373 26.1097 222.271C32.4662 222.972 38.2323 223.64 43.6183 224.762C76.3144 231.041 99.6696 245.699 121.274 273.949C122.984 276.234 124.763 278.345 126.611 280.282C137.108 291.872 147.131 298.045 157.378 299.076C168.979 300.239 181.11 294.973 195.675 282.018C210.62 268.61 234.603 257.766 252.605 270.712C269.806 283.14 265.385 306.54 262.611 316.107C262.304 317.393 261.823 318.611 261.515 319.898C259.837 325.673 258.09 331.621 257.35 337.565C256.068 346.916 257.555 354.344 261.575 360.961C266.152 368.2 273.883 374.071 281.509 379.699C284.469 381.874 287.534 384.292 290.425 386.641C295.127 390.511 300.739 396.148 302.607 403.122C304.091 409.542 302.134 415.006 299.865 420.748C298.147 425.098 296.602 429.517 296.448 434.486C296.355 437.265 296.852 440.077 297.94 442.921C304.959 461.787 333.312 476.006 356.142 472.151C375.919 468.9 391.394 457.712 406.316 446.91C411.127 443.379 416.425 439.638 421.516 436.419C431.766 429.807 451.443 418.67 468.935 417.131C471.018 416.948 473.031 416.939 474.802 417.035L474.459 417.905L474.285 417.837Z" fill="#FF7A04"/>
</g>
<g opacity="0.7">
<path opacity="0.7" d="M480.678 401.653C463.453 400.481 440.626 413.994 427.266 424.407C423.493 427.343 419.583 430.626 415.984 433.63C400.412 446.589 384.286 459.933 362.673 464.27C346.992 467.329 326.904 462.209 313.564 451.708C304.09 444.143 299.436 435.063 300.407 425.991C300.941 420.569 303.282 415.66 305.729 410.994C308.863 404.588 311.617 398.634 310.687 391.83C309.118 381.554 299.924 374.3 290.345 366.492C283.03 360.585 275.436 354.366 271.171 346.847C263.407 332.917 268.766 318.337 273.675 304.384C274.225 302.991 274.844 301.425 275.22 299.965C277.759 292.519 284.743 267.717 266.119 255.33C247.495 242.943 224.147 256.25 209.763 271.289C193.617 288.246 178.89 295.504 164.717 293.727C152.663 292.183 141.172 283.62 130.416 268.105C105.311 232.437 78.8948 216.368 35.9604 211.075C26.3731 209.902 16.9273 209.389 7.82929 209.014C-11.8952 208.061 -30.6128 207.104 -50.7819 199.136C-50.9558 199.067 -51.1296 198.998 -51.3035 198.93C-71.5777 190.719 -90.194 180.347 -108.289 170.181C-135.57 154.776 -163.895 138.959 -197.776 131.609C-203.336 130.418 -208.964 129.401 -214.419 128.453C-227.552 126.081 -241.034 123.572 -253.621 118.8C-269.86 112.586 -288.799 99.4707 -292.377 81.5611C-294.892 69.1009 -289.591 57.7169 -284.427 46.6808C-279.125 35.2968 -273.444 23.4594 -277.139 10.935C-277.527 9.37348 -278.158 7.91726 -278.789 6.46104L-277.224 7.07925C-276.698 8.29277 -276.241 9.6803 -275.89 10.8251C-272.332 23.6975 -277.908 35.7776 -283.278 47.3357C-288.374 58.1977 -293.675 69.5817 -291.197 81.6253C-287.691 98.7014 -269.795 111.404 -253.973 117.655C-253.799 117.724 -253.451 117.861 -253.277 117.93C-240.69 122.702 -227.382 125.143 -214.249 127.515C-208.794 128.463 -203.166 129.479 -197.606 130.67C-163.551 138.089 -135.053 153.974 -107.597 169.448C-89.6764 179.545 -71.0601 189.918 -50.7859 198.128C-50.6121 198.197 -50.4382 198.266 -50.2643 198.334C-30.2691 206.234 -11.7253 207.122 7.99917 208.075C17.0972 208.45 26.5429 208.963 36.1302 210.136C79.0647 215.43 106.629 232.153 131.561 267.753C142.106 282.782 153.25 291.208 164.887 292.788C178.643 294.602 192.954 287.38 208.789 270.702C223.552 255.211 247.386 241.693 266.81 254.598C286.061 267.433 278.976 292.999 276.437 300.445C275.887 301.837 275.442 303.472 274.892 304.864C269.809 318.749 264.762 333.05 272.315 346.495C276.407 353.945 283.895 359.921 291.21 365.828C301.137 373.774 310.437 381.27 312.042 391.963C313.077 399.01 310.116 405.485 307.051 411.717C304.779 416.452 302.437 421.361 301.867 426.367C300.965 435.264 305.582 443.928 314.603 451.113C327.49 461.233 347.162 466.39 362.426 463.368C383.797 459.136 399.68 445.898 415.252 432.939C418.92 429.761 422.761 426.651 426.534 423.716C430.376 420.607 459.349 398.658 481.265 400.678L480.852 401.722L480.678 401.653Z" fill="#FF7A04"/>
</g>
</g>
<path d="M352.467 726.186C345.617 723.681 339.18 720.132 333.782 715.988C175.261 596.23 122.339 593.83 75.4947 591.819C50.3882 590.752 26.7051 589.644 -10.3092 571.4C-31.5295 561.004 -49.6322 548.823 -67.1081 537.091C-98.5786 516.008 -128.448 495.96 -169.753 490.103C-174.512 489.429 -179.514 488.862 -184.342 488.362C-203.585 486.192 -223.524 483.746 -241.024 474.62C-267.396 460.982 -281.758 437.806 -295.562 415.253C-302.69 403.787 -310.029 391.835 -318.993 381.454C-343.933 352.49 -365.979 352.833 -391.461 353.226C-404.308 353.181 -417.465 353.414 -432.2 350.007L-431.375 347.919C-417.162 351.12 -404.247 350.992 -391.748 350.9C-366.508 350.612 -342.866 350.296 -317.089 380.194C-307.951 390.644 -300.681 402.77 -293.447 414.48C-279.853 436.547 -265.77 459.412 -240.094 472.774C-223.047 481.521 -203.282 483.897 -184.455 486.105C-179.627 486.604 -174.625 487.172 -169.692 487.914C-127.623 493.872 -97.5797 513.989 -65.8303 535.383C-48.3544 547.115 -30.2517 559.296 -9.37909 569.554C27.1135 587.592 50.4489 588.563 75.1389 589.667C122.331 591.815 175.739 594.004 334.991 714.454C340.11 718.287 346.373 721.767 352.875 724.135L352.119 726.049L352.467 726.186Z" fill="#FF7A04"/>
<path d="M409.87 580.886C402.571 579.009 395.649 575.67 388.831 572.575C382.709 569.754 376.414 566.864 369.948 564.913C355.731 560.705 340.944 561.502 326.573 562.262C315.534 562.729 304.183 563.475 292.789 561.79C275.871 559.331 269.478 549.563 263.259 539.864C259.277 533.664 255.12 527.395 248.262 522.875C235.347 514.353 224.417 516.07 211.927 518.176C204.398 519.426 196.452 520.713 187.56 519.816C163.004 517.356 146.587 510.066 134.137 496.296C124.093 485.086 119.387 471.559 114.891 458.517C112.607 451.579 110.217 444.399 106.857 437.64C102.551 428.696 93.5381 423.526 83.8984 417.908C75.6861 413.255 67.1947 408.291 62.0273 401.019C56.0916 392.639 54.6361 384.621 53.1119 376.776C50.6983 363.551 48.5354 352.236 26.106 343.375C-1.71344 332.384 -32.3477 338.186 -58.9141 345.394L-64.8097 347.088C-90.3006 354.117 -116.693 361.393 -144.351 356.099C-168.604 351.346 -178.531 334.751 -187.83 318.604C-192.549 310.705 -197.199 302.632 -203.753 295.817C-225.301 273.022 -263.152 253.843 -296.62 236.799C-311.545 229.294 -325.426 222.2 -337.467 215.029C-350.204 207.583 -361.656 200.444 -369.504 191.308L-368.61 189.046C-360.831 198.356 -349.274 205.738 -336.19 213.321C-324.253 220.249 -310.198 227.412 -295.516 235.022C-261.874 252.135 -223.744 271.625 -201.917 294.732C-195.258 301.789 -190.329 310.174 -185.61 318.073C-175.963 334.357 -166.979 349.775 -144.011 354.222C-116.944 359.484 -90.9677 352.244 -65.7195 345.32L-59.8239 343.626C-33.0148 336.313 -1.72145 330.37 26.7934 341.635L26.9673 341.703C50.7877 351.114 53.0598 363.68 55.5785 377.147C56.9976 384.749 58.5217 392.593 64.0733 400.419C69.0305 407.206 77.1741 412.032 85.0387 416.548C94.6784 422.166 104.561 427.68 109.182 437.351C112.473 444.284 114.863 451.465 117.321 458.471C121.712 471.27 126.245 484.729 135.904 495.385C147.97 508.601 163.865 515.685 187.483 517.975C196.027 518.735 203.731 517.553 211.086 516.235C223.75 514.197 235.651 512.059 249.645 521.41C257.13 526.378 261.391 532.89 265.479 539.333C271.593 548.789 277.496 557.76 293.128 559.912C304.175 561.46 315.457 560.888 326.322 560.352C340.867 559.661 355.897 558.759 370.635 563.173C377.275 565.193 383.745 568.151 389.866 570.972C396.684 574.068 403.432 577.337 410.731 579.215L410.043 580.955L409.87 580.886Z" fill="#FF7A04"/>
<path d="M480.541 402.001C463.663 400.966 441.079 414.374 427.719 424.788C423.946 427.723 420.036 431.006 416.437 434.01C400.865 446.969 384.67 460.487 362.883 464.755C346.96 467.919 326.697 462.731 313.253 451.988C303.605 444.354 298.846 435.031 299.712 425.716C300.246 420.294 302.587 415.386 305.102 410.545C308.168 404.313 310.921 398.36 309.992 391.555C308.528 381.522 299.333 374.268 289.754 366.46C282.266 360.484 274.672 354.266 270.301 346.504C262.433 332.331 267.791 317.75 272.769 303.623C273.319 302.231 273.938 300.665 274.314 299.204C276.785 291.933 283.7 267.305 265.529 255.298C247.357 243.291 224.321 256.319 210.111 271.426C193.896 288.557 178.926 295.92 164.58 294.075C152.352 292.463 140.513 283.762 129.757 268.248C104.826 232.648 78.5149 216.822 35.8231 211.423C26.2358 210.25 16.79 209.737 7.86589 209.43C-12.0325 208.409 -30.924 207.383 -51.6147 199.209C-71.8889 190.998 -90.679 180.557 -108.6 170.46C-137.203 154.332 -164.206 139.238 -197.913 131.957C-203.473 130.766 -209.101 129.75 -214.556 128.802C-227.69 126.429 -241.171 123.92 -253.932 119.08C-270.519 112.728 -289.39 99.4388 -293.141 81.4605C-295.83 68.9316 -290.286 57.4422 -285.053 46.2322C-279.545 34.3261 -274.313 23.116 -277.66 10.7291C-278.154 8.92483 -278.784 7.46861 -279.52 5.76969L-276.391 7.00612C-276.039 8.15094 -275.513 9.36445 -275.162 10.5093C-271.498 23.6244 -277.249 35.6358 -282.619 47.1938C-287.714 58.0558 -292.947 69.2659 -290.469 81.3094C-286.963 98.3856 -268.65 111.052 -252.933 117.06C-240.346 121.832 -227.038 124.273 -214.148 126.75C-208.693 127.698 -203.064 128.715 -197.504 129.905C-163.276 137.393 -134.777 153.278 -107.322 168.752C-89.4012 178.849 -70.7849 189.222 -50.6846 197.364C-30.7581 205.437 -11.8667 206.463 7.85785 207.416C16.9559 207.791 26.4016 208.304 36.1628 209.545C79.2711 214.908 107.009 231.7 132.046 267.542C142.486 282.329 153.456 290.686 164.92 292.197C178.259 294.048 192.881 286.547 208.336 270.322C223.168 254.657 247.418 241.102 267.191 254.144C286.789 267.118 279.567 293.032 276.958 300.651C276.409 302.044 275.964 303.678 275.414 305.07C270.399 318.781 265.352 333.082 272.8 346.284C276.787 353.492 284.207 359.642 291.59 365.375C301.169 373.183 311.096 381.128 312.701 391.821C313.841 399.111 310.707 405.517 307.642 411.75C305.369 416.485 303.096 421.22 302.457 426.399C301.45 435.054 305.894 443.649 314.984 450.66C327.696 460.711 347.194 465.799 362.285 462.708C383.413 458.582 399.365 445.17 414.868 432.385C418.536 429.207 422.377 426.097 426.15 423.162C430.166 420.121 459.276 397.825 481.54 399.982L480.715 402.07L480.541 402.001Z" fill="#FF7A04"/>
</g>
</svg>
